<svg width="24" height="24" viewBox="0 0 24 24" fill="none" xmlns="http://www.w3.org/2000/svg">
<path d="M5.55324 20.2099C6.94499 21.0358 8.62231 21.4299 10.435 21.2391C10.679 21.2137 10.9146 21.1794 11.1593 21.1367C12.6016 20.8709 13.9705 20.2551 15.1841 19.3903C15.9604 18.8385 16.68 18.1805 17.2989 17.4317C18.4171 16.112 19.2729 14.5334 19.7204 12.8234C19.9014 12.1794 20.008 11.5209 20.0686 10.8462C20.0832 10.6906 20.0896 10.5259 20.0956 10.3699C20.1315 9.4339 20.053 8.5369 19.8596 7.69629C19.3234 5.38435 17.9719 3.50981 16.1218 2.41467L18.4383 3.79675C20.2883 4.89194 21.6399 6.76643 22.1674 9.07804C22.3695 9.91898 22.4479 10.816 22.412 11.752C22.406 11.908 22.3913 12.0636 22.3767 12.2193C22.3248 12.8943 22.2039 13.558 22.0402 14.2026C21.575 15.9207 20.7336 17.4941 19.6154 18.8138C18.9964 19.5626 18.2855 20.221 17.5092 20.7727C14.5934 22.8707 10.8342 23.3463 7.87835 21.5923L5.55324 20.2099Z" fill="#FDD835"/>
<path d="M1.58825 12.2551C1.80735 6.76942 6.12553 1.90105 11.2404 1.37686C16.3464 0.861024 20.3144 4.89295 20.0956 10.3699C19.8765 15.8555 15.5496 20.7236 10.435 21.2391C5.32878 21.7636 1.3691 17.7407 1.58825 12.2551Z" fill="#F6B647"/>
<path d="M11.2895 1.84375C15.8263 1.30302 19.8478 4.93509 19.6294 10.3504C19.4228 15.6037 15.2762 20.2837 10.3894 20.777C5.42325 21.2505 1.85124 17.3612 2.05611 12.277C2.26282 7.02376 6.40947 2.34375 11.2895 1.84375ZM10.5962 19.0504C14.5561 18.6504 17.9161 14.877 18.0895 10.6437C18.2531 6.45212 15.2897 3.20275 11.0828 3.56372C7.12285 3.97038 3.76949 7.75032 3.59615 11.9837C3.42118 16.4412 6.74735 19.4783 10.5962 19.0504Z" fill="#FDD835"/>
<path d="M4.0628 12.0029C4.22575 7.98186 7.39172 4.41458 11.13 4.02856C14.8766 3.65155 17.7839 6.6012 17.6209 10.6222C17.458 14.6432 14.292 18.2105 10.5454 18.5875C6.80714 18.9735 3.90017 16.0152 4.0628 12.0029Z" fill="#F39E09"/>
<path d="M4.06279 12.0029C4.22574 7.98186 7.39171 4.41458 11.13 4.02856C13.3083 3.80837 15.209 4.71447 16.3718 6.30403C15.2294 5.31413 13.704 4.80432 12.0051 4.97346C8.26678 5.35948 5.10082 8.92676 4.93786 12.9477C4.87369 14.6204 5.33719 16.1137 6.18727 17.2573C4.80053 16.0757 3.96999 14.1952 4.06279 12.0029Z" fill="#E88102"/>
<path d="M11.1594 21.1366C12.6016 20.8708 13.9706 20.255 15.1842 19.3903L17.5093 20.7727C16.2954 21.6461 14.9268 22.2533 13.4845 22.5191L11.1594 21.1366Z" fill="#F39E09"/>
<path d="M17.2989 17.4317C18.4172 16.1119 19.273 14.5334 19.7205 12.8234L22.0403 14.2026C21.5751 15.9206 20.7336 17.4941 19.6154 18.8138L17.2989 17.4317Z" fill="#F39E09"/>
<path d="M19.8596 7.69629L22.1674 9.07804C22.3695 9.91898 22.4479 10.816 22.412 11.752C22.406 11.908 22.3913 12.0636 22.3767 12.2193L20.0686 10.8462C20.0832 10.6906 20.0896 10.5259 20.0956 10.3699C20.1315 9.4339 20.053 8.5369 19.8596 7.69629Z" fill="#F39E09"/>
<g opacity="0.7">
<path d="M12.7677 16.4765C11.9075 16.9878 11.1435 17.2163 11.3283 17.5661C11.5111 17.9122 12.3693 17.7899 13.2295 17.2785C14.0896 16.7672 14.4986 16.0697 14.3158 15.7236C14.131 15.3738 13.6278 15.9651 12.7677 16.4765Z" fill="white"/>
</g>
<g opacity="0.7">
<path d="M15.3136 14.7191C15.1586 14.5981 14.8967 14.6754 14.7283 14.8865C14.5599 15.0976 14.5474 15.364 14.7024 15.485C14.8542 15.6035 15.1134 15.5296 15.2818 15.3185C15.4503 15.1075 15.4654 14.8376 15.3136 14.7191Z" fill="white"/>
</g>
<path d="M12.6127 10.2498C12.713 10.4733 12.7029 10.7214 12.5825 10.9933L14.1875 11.704L14.3954 11.2342C14.3954 11.2342 14.392 10.7141 14.3513 10.4791C14.2806 10.0693 14.0926 9.69444 13.7878 9.35486C13.6204 9.16827 13.4263 9.00109 13.206 8.85285L13.5817 8.00438L13.0182 7.75489L12.6654 8.55176C12.647 8.54361 12.4931 8.47619 12.435 8.45292L12.789 7.65339L12.2255 7.4039L11.8438 8.26601C11.618 8.21284 11.3954 8.18204 11.1759 8.17388C10.7117 8.15671 10.3094 8.24177 9.96857 8.42923C9.75524 8.54653 9.41972 8.7956 9.41972 8.7956L9.21173 9.26535C8.8828 10.0082 9.05694 10.7838 9.73384 11.5918C9.85292 11.7346 9.99655 11.89 10.1646 12.0584L9.43951 13.6961C9.40002 13.6435 9.36757 13.5894 9.34303 13.5335C9.23308 13.2819 9.25729 12.9773 9.41578 12.6193L8.00959 11.4348L7.80159 11.9046C7.6066 12.345 7.54523 12.7832 7.6172 13.2191C7.68917 13.6549 7.90176 14.0672 8.25437 14.4557C8.43395 14.6533 8.63775 14.8315 8.86592 14.9907L8.48223 15.8573L9.0457 16.1068L9.4001 15.3063C9.46374 15.3381 9.52862 15.3686 9.59505 15.398C9.60602 15.4028 9.61653 15.4071 9.62764 15.4117L9.27494 16.2083L9.83841 16.4578L10.2079 15.6232C10.7284 15.7742 11.2019 15.8001 11.6278 15.7C12.2158 15.5617 12.6389 15.2006 12.8974 14.6167L13.1054 14.1469C13.1054 14.1469 13.013 13.0146 12.5767 12.4178C12.4134 12.194 12.2021 11.9564 11.9429 11.7055L12.5987 10.2244C12.603 10.2331 12.6081 10.2417 12.6123 10.2507L12.6127 10.2498ZM10.8464 10.5187C10.7504 10.3212 10.737 10.144 10.8064 9.98738C10.8895 9.79965 11.0354 9.67767 11.2437 9.6213L10.8464 10.5187ZM10.1645 14.2001C10.1535 14.1952 10.1427 14.1915 10.1317 14.1867C10.0629 14.1562 9.99859 14.1245 9.93798 14.0923L10.639 12.509C10.7081 12.5733 10.7719 12.6352 10.831 12.6947L10.1643 14.2004L10.1645 14.2001ZM11.465 11.2629C11.3958 11.1979 11.3324 11.1354 11.2738 11.0754L11.8957 9.6709C11.9414 9.68691 11.9879 9.70463 12.0356 9.72577C12.067 9.73969 12.0971 9.7544 12.1262 9.76944L11.465 11.2629ZM11.2779 13.2516C11.3864 13.4567 11.3884 13.6772 11.2842 13.9127C11.1921 14.1206 11.0433 14.2476 10.8384 14.2938C10.8237 14.2973 10.8084 14.299 10.7935 14.3016L11.2671 13.2319C11.2706 13.2384 11.2747 13.2452 11.2779 13.2516Z" fill="#DB6704"/>
<path d="M12.7852 11.9476C12.6218 11.7238 12.4106 11.4863 12.1514 11.2353L12.8072 9.75426C12.8115 9.76291 12.8166 9.77153 12.8208 9.78048C12.9211 10.004 12.911 10.2521 12.7905 10.524L14.3955 11.2347C14.5756 10.8281 14.6301 10.4198 14.5593 10.0101C14.4886 9.60026 14.3005 9.22544 13.9958 8.88585C13.8283 8.69927 13.6342 8.53209 13.414 8.38384L13.7896 7.53538L13.2262 7.28589L12.8733 8.08275C12.855 8.07461 12.8368 8.06588 12.8184 8.05774C12.7597 8.03174 12.7014 8.00732 12.6431 7.98435L12.9971 7.18482L12.4336 6.93533L12.0519 7.79743C11.8261 7.74427 11.6035 7.71346 11.384 7.7053C10.9199 7.68814 10.5176 7.7732 10.1767 7.96066C9.83582 8.14812 9.58373 8.42667 9.41985 8.79678C9.09092 9.53967 9.26506 10.3152 9.94196 11.1232C10.061 11.266 10.2047 11.4215 10.3727 11.5899L9.64763 13.2275C9.60814 13.1749 9.57569 13.1208 9.55115 13.0649C9.4412 12.8133 9.46541 12.5087 9.6239 12.1507L8.00971 11.436C7.81472 11.8764 7.75335 12.3146 7.82532 12.7505C7.89729 13.1864 8.10988 13.5987 8.46249 13.9871C8.64207 14.1847 8.84587 14.3629 9.07404 14.5221L8.69035 15.3887L9.25382 15.6382L9.60822 14.8378C9.67186 14.8695 9.73674 14.9 9.80317 14.9294C9.81415 14.9343 9.82466 14.9386 9.83576 14.9431L9.48306 15.7397L10.0465 15.9892L10.416 15.1547C10.9366 15.3057 11.41 15.3316 11.836 15.2314C12.4239 15.0931 12.847 14.732 13.1056 14.1481C13.4291 13.4174 13.322 12.6843 12.7849 11.9492L12.7852 11.9476ZM12.2435 9.25604C12.275 9.26996 12.305 9.28467 12.3342 9.29971L11.6729 10.7932C11.6038 10.7282 11.5403 10.6657 11.4817 10.6057L12.1036 9.20118C12.1494 9.21718 12.1958 9.2349 12.2435 9.25604ZM11.0142 9.51795C11.0973 9.33022 11.2432 9.20824 11.4515 9.15187L11.0542 10.0493C10.9582 9.85178 10.9448 9.67453 11.0142 9.51795ZM10.3397 13.7169C10.2709 13.6865 10.2065 13.6548 10.1459 13.6226L10.847 12.0393C10.916 12.1036 10.9798 12.1655 11.0389 12.225L10.3723 13.7306C10.3613 13.7258 10.3505 13.7221 10.3395 13.7172L10.3397 13.7169ZM11.0463 13.8241C11.0317 13.8275 11.0164 13.8293 11.0014 13.8319L11.475 12.7622C11.4785 12.7687 11.4826 12.7754 11.4858 12.7818C11.5943 12.987 11.5964 13.2075 11.4921 13.4429C11.4001 13.6508 11.2512 13.7779 11.0463 13.8241Z" fill="#FDD835"/>
<path opacity="0.5" d="M11.3842 7.70432C11.5823 7.71188 11.7826 7.73778 11.9862 7.78182L9.43265 8.76805C9.59674 8.41187 9.84477 8.14251 10.1767 7.95997C10.5175 7.77281 10.9202 7.68758 11.384 7.70462L11.3842 7.70432Z" fill="white"/>
<path opacity="0.5" d="M12.4333 6.93433L12.9971 7.18395L12.8864 7.43395L12.0732 7.7478L12.4333 6.93433Z" fill="white"/>
<path opacity="0.5" d="M13.2468 7.29447L13.2169 7.30604L13.2261 7.28528L13.2468 7.29447Z" fill="white"/>
<path opacity="0.5" d="M13.2512 12.9506C13.1853 12.6171 13.0301 12.2827 12.7853 11.948C12.622 11.7239 12.4107 11.4867 12.1516 11.2354L12.3734 10.7345L10.314 11.5299C10.3331 11.5493 10.3527 11.569 10.3729 11.5893L9.6479 13.2266C9.60828 13.1743 9.57596 13.1199 9.55141 13.064C9.44147 12.8124 9.46597 12.5079 9.62446 12.15L9.19771 11.961L7.79942 12.5011C7.80359 12.5838 7.81257 12.6668 7.82602 12.7494C7.89799 13.1853 8.11028 13.5975 8.46318 13.986C8.64277 14.1837 8.84656 14.3619 9.07486 14.5208L9.05202 14.5724L11.0087 13.8167L11.4753 12.7627C11.4788 12.7692 11.4831 12.7757 11.4863 12.7821C11.5948 12.9873 11.5968 13.2077 11.4926 13.4432C11.4441 13.5526 11.3797 13.6397 11.3001 13.7041L13.2512 12.9506ZM10.3726 13.7305C10.3615 13.7259 10.3508 13.7219 10.3398 13.717C10.271 13.6866 10.2065 13.6552 10.1461 13.6227L10.8473 12.0391C10.916 12.1032 10.9801 12.1653 11.0392 12.2248L10.3726 13.7305Z" fill="white"/>
<path opacity="0.5" d="M14.3952 11.2348L12.8496 10.5504L14.5362 9.89897C14.5451 9.93587 14.5525 9.97284 14.559 10.0101C14.6302 10.4198 14.5753 10.8282 14.3952 11.2348Z" fill="white"/>
<path opacity="0.5" d="M8.00977 11.4351L8.60378 11.6981L7.83361 11.9955C7.86829 11.8091 7.92691 11.6222 8.00977 11.4351Z" fill="white"/>
<path opacity="0.5" d="M11.9701 9.50363L11.4923 10.5828L9.97978 11.167C9.96689 11.1521 9.95442 11.137 9.94211 11.1223C9.75449 10.8987 9.60606 10.678 9.49576 10.4593L10.9916 9.88156C11.0055 9.93594 11.0262 9.9916 11.0542 10.0494L11.1568 9.81777L11.9697 9.50379L11.9701 9.50363Z" fill="white"/>
<path opacity="0.5" d="M14.3861 9.46494L12.8869 10.044C12.8804 9.9528 12.8584 9.86468 12.8205 9.78049C12.8167 9.77138 12.8113 9.76292 12.8069 9.75427L12.6357 10.141L11.8228 10.455L12.3006 9.37577L13.8811 8.76533C13.9207 8.80413 13.9589 8.84445 13.9958 8.88527C14.1597 9.06781 14.2898 9.26123 14.3863 9.46464L14.3861 9.46494Z" fill="white"/>
<path opacity="0.5" d="M9.53529 15.6211L10.3484 15.3069L10.0469 15.9878L9.48343 15.7383L9.53529 15.6211Z" fill="white"/>
<path opacity="0.5" d="M13.0507 14.2635C12.7889 14.7793 12.3842 15.1013 11.8366 15.2302C11.4649 15.3182 11.0565 15.309 10.6126 15.2051L13.0502 14.2636L13.0507 14.2635Z" fill="white"/>
</svg>
