<svg width="24" height="24" viewBox="0 0 24 24" fill="none" xmlns="http://www.w3.org/2000/svg">
<path d="M6.65954 21.937C9.97418 25.2517 16.0639 24.4808 20.3035 20.2797C24.5046 16.0401 25.2369 9.91183 21.9223 6.63574L20.8817 5.59509L5.58035 20.8579L6.65954 21.937Z" fill="#CC104A"/>
<path d="M5.65734 20.9349C8.97198 24.2496 15.0617 23.4787 19.3013 19.2776C23.541 15.038 24.2733 8.94827 20.9586 5.63363C17.644 2.31899 11.5543 3.08984 7.3532 7.29095C6.0813 8.56285 5.11774 10.0275 4.50106 11.4921C4.30835 11.9931 4.11564 12.4556 4.00002 12.9567C3.15208 15.963 3.69168 18.9693 5.65734 20.9349Z" fill="#F34B58"/>
<path d="M8.35545 8.33155C5.07935 11.6077 4.50121 16.3484 7.04501 18.9307C9.5888 21.513 14.3681 20.8964 17.6442 17.6203C20.9203 14.3442 21.4984 9.60345 18.9546 7.02111C16.4108 4.43878 11.6315 5.05546 8.35545 8.33155Z" fill="white"/>
<path d="M9.35759 9.33366C6.96796 11.7233 6.544 15.1921 8.39403 17.0421C10.2441 18.8922 13.7129 18.5067 16.1025 16.0786C18.4921 13.6889 18.9161 10.2201 17.0661 8.3701C15.216 6.52007 11.7472 6.94403 9.35759 9.33366Z" fill="#F34B58"/>
<path d="M10.4367 10.4129C8.89496 11.9546 8.62517 14.1515 9.81998 15.3463C11.0148 16.5411 13.2117 16.2713 14.7534 14.7296C16.2951 13.1879 16.5649 10.991 15.3701 9.79619C14.1753 8.60137 11.9398 8.87117 10.4367 10.4129Z" fill="white"/>
<path d="M11.4389 11.415C10.7066 12.1473 10.5524 13.2265 11.1305 13.8432C11.7472 14.4213 12.8264 14.3057 13.5587 13.5348C14.291 12.8025 14.4452 11.7233 13.867 11.1452C13.2889 10.5671 12.2097 10.6827 11.4389 11.415Z" fill="#F34B58"/>
<g opacity="0.2">
<path d="M3.96138 12.9952L12.3251 13.0338C13.2886 13.0338 13.3272 11.5692 12.3251 11.5692L4.46243 11.5306C4.26972 12.0317 4.11554 12.4942 3.96138 12.9952Z" fill="#1D2943"/>
</g>
<path d="M18.4151 18.3912C19.4172 17.6589 20.2266 16.6568 20.8047 15.5776C21.3828 14.4599 21.7297 13.2265 21.6912 11.9932C21.3443 13.188 20.9203 14.3057 20.3422 15.3463C19.8026 16.387 19.1474 17.3891 18.4151 18.3912Z" fill="white"/>
<path d="M1.95731 1.93352C1.64897 2.24186 1.64897 2.70437 1.95731 2.97417L11.8241 12.8025C12.0939 13.0723 12.5565 13.0723 12.8648 12.8025C13.1346 12.5327 13.1346 12.0702 12.8648 11.7618L2.99795 1.93352C2.68961 1.62519 2.22711 1.62519 1.95731 1.93352Z" fill="#1D2943"/>
<path d="M2.11154 3.08984L0.377139 3.59089C0.0688004 3.66798 -0.0468268 4.0534 0.184427 4.28466L0.646934 4.74716C0.839646 4.93988 1.14798 5.01696 1.41778 4.93988L1.99592 4.78571L1.88029 4.90133C1.57195 5.20967 1.57195 5.71072 1.88029 6.01906L2.84385 6.98262C3.03656 7.17533 3.3449 7.25242 3.61469 7.17533L5.6189 6.5972L2.11154 3.08984Z" fill="#FFD06C"/>
<path d="M3.11373 2.0492L3.61478 0.314797C3.69187 0.00645854 4.07729 -0.109168 4.30855 0.122086L5.69607 1.50961C5.88878 1.70232 5.96587 2.01066 5.88878 2.28046L5.73461 2.85859L6.12004 2.47317C6.2742 2.319 6.544 2.319 6.69817 2.47317L7.00651 2.82005C7.19922 3.01276 7.27631 3.3211 7.19922 3.5909L6.62109 5.55656L3.11373 2.0492Z" fill="#FFD06C"/>
<path d="M5.77295 5.36386C5.42607 4.90135 5.0021 4.43885 4.57814 4.01488C4.34688 3.82217 3.65312 3.12841 3.92292 3.3982C3.69166 3.20549 3.46041 3.01278 3.22916 2.82007C3.42187 3.05132 3.61458 3.28258 3.80729 3.51383C4 3.74508 4.23126 3.9378 4.42397 4.16905C4.84793 4.59302 5.2719 4.97844 5.77295 5.36386Z" fill="white"/>
</svg>
