<svg width="390" height="844" viewBox="0 0 390 844" fill="none" xmlns="http://www.w3.org/2000/svg">
<g clip-path="url(#clip0_11_6036)">
<rect width="844" height="390" transform="matrix(0 -1 1 0 0 844)" fill="url(#paint0_radial_11_6036)"/>
<path d="M53.1885 284.238L35.8827 267.419C21.1962 282.536 8.64255 299.711 -1.31058 318.513L20.0175 329.776C28.8856 313.031 40.0922 297.709 53.1885 284.22V284.238ZM161.476 226.989L157.378 203.266C136.162 206.914 115.957 213.537 97.2479 222.761L107.893 244.407C124.563 236.194 142.561 230.263 161.494 226.989H161.476ZM282.747 244.407L293.392 222.761C274.683 213.537 254.478 206.914 233.262 203.266L229.146 226.989C248.06 230.263 266.058 236.194 282.747 244.407ZM282.728 600.213C266.058 608.426 248.06 614.357 229.146 617.631L233.262 641.373C254.478 637.724 274.683 631.083 293.392 621.878L282.747 600.213H282.728ZM-2.99438 422.31C-2.97568 412.731 -2.24606 403.339 -0.917725 394.134L-24.7341 390.711C-26.2122 401.038 -27.0166 411.59 -27.0166 422.31C-27.0166 433.03 -26.2122 443.582 -24.7341 453.909L-0.917725 450.486C-2.22736 441.281 -2.97568 431.87 -2.99438 422.31ZM370.585 329.794L391.913 318.532C381.979 299.729 369.425 282.554 354.72 267.438L337.414 284.257C350.51 297.727 361.698 313.05 370.566 329.813L370.585 329.794ZM20.0175 514.844L-1.31058 526.107C8.64255 544.909 21.1962 562.084 35.8827 577.201L53.1885 560.382C40.0922 546.911 28.8856 531.589 20.0175 514.826V514.844ZM393.616 422.31C393.597 431.889 392.867 441.281 391.539 450.486L415.374 453.909C416.852 443.582 417.657 433.049 417.657 422.31C417.657 411.571 416.852 401.038 415.374 390.711L391.539 394.134C392.867 403.339 393.597 412.75 393.616 422.31ZM212.476 438.98C214.048 437.352 215.339 435.462 216.405 433.442L370.585 514.826C381.025 495.106 388.228 473.441 391.52 450.486L218.912 425.696C219.062 424.574 219.249 423.47 219.249 422.31C219.249 421.15 219.062 420.028 218.912 418.924L391.52 394.134C388.228 371.179 381.006 349.495 370.585 329.794L216.405 411.178C215.339 409.158 214.048 407.268 212.476 405.64L337.452 284.238C321.699 268.036 303.233 254.51 282.765 244.407L205.853 400.888C203.833 399.897 201.7 399.167 199.399 398.774L229.164 226.989C218.164 225.081 206.882 224.014 195.32 223.996C183.777 224.014 172.495 225.081 161.476 226.989L191.241 398.774C188.94 399.167 186.807 399.915 184.787 400.907L107.875 244.426C87.3883 254.529 68.9227 268.055 53.1885 284.257L178.145 405.659C176.574 407.287 175.283 409.176 174.216 411.197L19.9988 329.794C9.5593 349.514 2.35635 371.179 -0.955109 394.134L171.672 418.924C171.522 420.046 171.335 421.15 171.335 422.31C171.335 423.47 171.522 424.574 171.672 425.696L-0.955109 450.486C2.33765 473.441 9.5593 495.125 19.9988 514.826L174.216 433.423C175.283 435.444 176.555 437.333 178.145 438.961L53.1697 560.363C68.9226 576.565 87.3883 590.091 107.875 600.176L184.787 443.694C186.807 444.686 188.94 445.416 191.241 445.827L161.494 617.612C172.495 619.521 183.777 620.568 195.32 620.587C206.863 620.568 218.164 619.502 229.164 617.594L199.399 445.827C201.681 445.434 203.833 444.705 205.853 443.713L282.747 600.194C303.233 590.092 321.699 576.565 337.452 560.382L212.476 438.98ZM195.32 -40.38C-60.2437 -40.38 -267.389 166.765 -267.389 422.31C-267.389 677.855 -60.2437 885 195.32 885C450.884 885 658.029 677.855 658.029 422.31C658.029 166.765 450.865 -40.38 195.32 -40.38ZM509.873 116.737C538.853 146.578 563.624 180.479 583.249 217.56L524.803 248.411C508.133 216.905 487.104 188.112 462.483 162.78L509.873 116.737ZM270.174 -9.86578C312.045 -2.66285 351.895 10.4147 388.808 28.5997L359.64 87.9257C328.284 72.4908 294.44 61.3777 258.893 55.2599L270.174 -9.86578ZM120.447 -9.86578L131.728 55.2412C152.364 51.7052 173.543 49.7408 195.17 49.7408C216.798 49.7408 238.07 51.7052 258.743 55.2599L254.646 78.9454C235.301 75.6152 215.451 73.7818 195.17 73.7818C174.871 73.7818 155.021 75.6152 135.695 78.9454L131.597 55.2974C96.088 61.4152 62.281 72.5096 30.981 87.9257L1.81378 28.5997C38.7265 10.4147 78.5764 -2.66285 120.447 -9.86578ZM-119.233 116.719L-71.8993 162.686C-42.3205 132.266 -7.61548 106.859 30.85 87.907L41.458 109.478C6.95874 126.466 -24.3413 148.935 -51.2634 175.839C-52.442 177.036 -53.5646 178.29 -54.7432 179.487L-71.918 162.817C-96.5015 188.131 -117.53 216.905 -134.163 248.373L-192.628 217.522C-173.021 180.441 -148.232 146.541 -119.252 116.7L-119.233 116.719ZM-243.348 422.31C-243.348 401.132 -241.757 380.346 -238.876 359.972L-173.582 369.345C-167.427 326.202 -153.9 285.454 -134.312 248.411L-113.059 259.617C-131.394 294.285 -144.06 332.414 -149.784 372.788L-173.451 369.383C-175.902 386.688 -177.268 404.349 -177.268 422.329C-177.268 440.308 -175.921 457.969 -173.451 475.256L-149.784 471.87C-144.041 512.244 -131.394 550.372 -113.04 585.04L-134.294 596.247C-153.9 559.203 -167.427 518.436 -173.563 475.294L-238.839 484.667C-241.739 464.293 -243.329 443.488 -243.329 422.31H-243.348ZM-119.233 727.901C-148.232 698.061 -173.002 664.16 -192.628 627.098L-134.163 596.228C-117.53 627.696 -96.5015 656.471 -71.8993 681.784L-54.7432 665.114C-53.5833 666.312 -52.4607 667.565 -51.2821 668.762C-24.36 695.685 6.94006 718.154 41.4393 735.142L30.8313 756.713C-7.65292 737.761 -42.3392 712.373 -71.918 681.952L-119.252 727.92L-119.233 727.901ZM195.17 794.879C173.524 794.879 152.346 792.934 131.728 789.379L120.447 854.486C78.5764 847.283 38.7265 834.205 1.83249 816.02L30.981 756.694C62.281 772.11 96.088 783.205 131.597 789.323L135.695 765.675C155.021 769.005 174.89 770.838 195.17 770.838C215.451 770.838 235.32 769.005 254.665 765.675L258.762 789.341C238.089 792.896 216.854 794.861 195.17 794.861V794.879ZM270.174 854.486L258.893 789.36C294.44 783.242 328.284 772.129 359.64 756.694L388.789 816.02C351.876 834.205 312.045 847.283 270.174 854.486ZM359.509 756.694L348.939 735.179C319.641 749.585 288.041 759.968 254.796 765.675L233.262 641.354C220.933 643.487 208.267 644.647 195.32 644.647C182.373 644.647 169.708 643.487 157.378 641.354L135.844 765.675C102.561 759.95 70.9245 749.566 41.5889 735.123L97.2479 621.859C74.2734 610.54 53.5439 595.367 35.8827 577.201L-54.5936 665.096C-77.6242 641.391 -97.306 614.451 -112.909 585.003L-1.31058 526.088C-13.0037 503.974 -21.0859 479.653 -24.7529 453.891L-149.654 471.833C-151.955 455.649 -153.208 439.129 -153.208 422.291C-153.208 405.453 -151.955 388.933 -149.654 372.75L-24.7529 390.692C-21.0859 364.949 -13.0224 340.627 -1.31058 318.494L-112.909 259.58C-97.3247 230.132 -77.6429 203.191 -54.5936 179.487L35.9014 267.4C53.5626 249.215 74.2921 234.042 97.2667 222.742L41.6076 109.478C70.9245 95.0351 102.58 84.6516 135.863 78.9267L157.397 203.247C169.745 201.115 182.392 199.955 195.339 199.955C208.285 199.955 220.951 201.115 233.28 203.247L254.814 78.9267C288.041 84.6329 319.659 95.0164 348.958 109.422L359.528 87.907C398.031 106.859 432.755 132.285 462.352 162.743L445.121 179.487C443.961 178.29 442.839 177.036 441.642 175.839C414.757 148.954 383.476 126.503 349.032 109.534L293.392 222.742C316.367 234.061 337.096 249.234 354.757 267.4L445.252 179.487C468.283 203.173 487.946 230.095 503.512 259.543L524.653 248.373C544.241 285.436 557.786 326.184 563.923 369.326L540.125 372.75C534.382 332.395 521.734 294.304 503.418 259.655L391.932 318.513C403.625 340.627 411.707 364.949 415.374 390.692L540.275 372.75C542.576 388.933 543.848 405.453 543.848 422.291C543.848 439.129 542.595 455.649 540.275 471.814L415.374 453.872C411.707 479.634 403.644 503.937 391.932 526.051L503.418 584.909C521.734 550.26 534.382 512.169 540.125 471.814L563.923 475.238C557.786 518.38 544.241 559.147 524.653 596.191L503.512 585.021C487.927 614.451 468.246 641.373 445.234 665.058L354.739 577.145C337.077 595.311 316.348 610.484 293.373 621.803L349.014 735.011C383.457 718.023 414.719 695.572 441.623 668.688C442.82 667.509 443.924 666.255 445.103 665.039L462.352 681.784C432.755 712.242 398.031 737.667 359.528 756.62L359.509 756.694ZM509.854 727.901L462.464 681.859C487.067 656.527 508.114 627.734 524.784 596.228L583.231 627.079C563.605 664.141 538.834 698.061 509.854 727.883V727.901ZM564.054 475.275C566.505 457.969 567.871 440.308 567.871 422.329C567.871 404.349 566.523 386.67 564.054 369.364L629.479 359.972C632.379 380.346 633.969 401.132 633.969 422.31C633.969 443.488 632.379 464.293 629.479 484.667L564.054 475.275ZM107.893 600.213L97.2667 621.878C115.976 631.083 136.162 637.724 157.378 641.373L161.494 617.65C142.58 614.357 124.563 608.445 107.893 600.232V600.213ZM337.433 560.382L354.739 577.201C369.425 562.084 381.979 544.891 391.932 526.088L370.604 514.826C361.736 531.589 350.529 546.893 337.452 560.382H337.433Z" fill="white" fill-opacity="0.05"/>
</g>
<defs>
<radialGradient id="paint0_radial_11_6036" cx="0" cy="0" r="1" gradientUnits="userSpaceOnUse" gradientTransform="translate(422 195) rotate(-180) scale(534.13 258.409)">
<stop stop-color="#0471FF"/>
<stop offset="1" stop-color="#0447BB"/>
</radialGradient>
<clipPath id="clip0_11_6036">
<rect width="844" height="390" fill="white" transform="matrix(0 -1 1 0 0 844)"/>
</clipPath>
</defs>
</svg>
