<svg width="34" height="36" viewBox="0 0 34 36" fill="none" xmlns="http://www.w3.org/2000/svg">
<g filter="url(#filter0_d_31_7002)">
<rect x="0.5" y="0.5" width="33" height="33" rx="16.5" stroke="black" shape-rendering="crispEdges"/>
<path d="M17.0364 1H16.9636C8.14712 1 1 8.14713 1 16.9636V17.0364C1 25.8529 8.14712 33 16.9636 33H17.0364C25.8529 33 33 25.8529 33 17.0364V16.9636C33 8.14713 25.8529 1 17.0364 1Z" fill="#5865F2"/>
<path d="M25.0078 9.65416C23.5346 8.97813 21.9561 8.48035 20.3047 8.19559C20.2744 8.18998 20.2442 8.20343 20.2296 8.23146C20.0267 8.59246 19.8013 9.06445 19.6444 9.43442C17.8685 9.16872 16.1016 9.16872 14.3617 9.43442C14.2036 9.05548 13.9704 8.59246 13.7664 8.23146C13.7507 8.20456 13.7204 8.1911 13.6912 8.19559C12.041 8.48035 10.4613 8.97813 8.98817 9.65416C8.97584 9.65976 8.96463 9.66873 8.95678 9.68106C5.96116 14.1566 5.14048 18.5222 5.54296 22.834C5.5452 22.8553 5.55642 22.8755 5.57323 22.8878C7.54976 24.3396 9.46465 25.2208 11.3436 25.8049C11.3739 25.8139 11.4053 25.8027 11.4244 25.778C11.8683 25.1715 12.2652 24.5314 12.6049 23.8576C12.6251 23.8183 12.6049 23.7712 12.5645 23.7555C11.9356 23.5168 11.338 23.2264 10.7618 22.8968C10.7158 22.8699 10.7125 22.8048 10.7539 22.7735C10.875 22.6826 10.9961 22.5885 11.1116 22.4932C11.1329 22.4752 11.162 22.4719 11.1867 22.4831C14.9682 24.2096 19.0625 24.2096 22.7992 22.4831C22.8239 22.4707 22.853 22.4752 22.8743 22.4921C22.9898 22.5873 23.1108 22.6826 23.2331 22.7735C23.2745 22.8048 23.2723 22.8699 23.2263 22.8968C22.6512 23.2331 22.0525 23.5179 21.4225 23.7555C21.381 23.7712 21.363 23.8183 21.3832 23.8587C21.7308 24.5302 22.1265 25.1704 22.5626 25.778C22.5806 25.8038 22.6131 25.815 22.6433 25.8061C24.5313 25.222 26.4462 24.3408 28.4227 22.8889C28.4395 22.8766 28.4507 22.8564 28.453 22.8362C28.9351 17.8518 27.6458 13.522 25.0369 9.68331C25.0302 9.67097 25.0201 9.66088 25.0067 9.65528L25.0078 9.65416ZM13.1677 20.2083C12.0286 20.2083 11.0914 19.1635 11.0914 17.8798C11.0914 16.5961 12.0118 15.5512 13.1677 15.5512C14.3235 15.5512 15.263 16.6062 15.244 17.8798C15.244 19.1635 14.3235 20.2083 13.1677 20.2083ZM20.8462 20.2083C19.7071 20.2083 18.7699 19.1635 18.7699 17.8798C18.7699 16.5961 19.6903 15.5512 20.8462 15.5512C22.0021 15.5512 22.9416 16.6062 22.9225 17.8798C22.9225 19.1635 22.0122 20.2083 20.8462 20.2083Z" fill="white"/>
</g>
<defs>
<filter id="filter0_d_31_7002" x="0" y="0" width="34" height="36" filterUnits="userSpaceOnUse" color-interpolation-filters="sRGB">
<feFlood flood-opacity="0" result="BackgroundImageFix"/>
<feColorMatrix in="SourceAlpha" type="matrix" values="0 0 0 0 0 0 0 0 0 0 0 0 0 0 0 0 0 0 127 0" result="hardAlpha"/>
<feOffset dy="2"/>
<feComposite in2="hardAlpha" operator="out"/>
<feColorMatrix type="matrix" values="0 0 0 0 0 0 0 0 0 0 0 0 0 0 0 0 0 0 0.5 0"/>
<feBlend mode="normal" in2="BackgroundImageFix" result="effect1_dropShadow_31_7002"/>
<feBlend mode="normal" in="SourceGraphic" in2="effect1_dropShadow_31_7002" result="shape"/>
</filter>
</defs>
</svg>
