<svg width="34" height="36" viewBox="0 0 34 36" fill="none" xmlns="http://www.w3.org/2000/svg">
<g filter="url(#filter0_d_31_7001)">
<rect x="0.5" y="0.5" width="33" height="33" rx="16.5" stroke="black" shape-rendering="crispEdges"/>
<path d="M33 17.0006C33 25.0816 27.0099 31.7623 19.2282 32.8464C18.5006 32.9473 17.7562 33 17.0006 33C16.1283 33 15.2718 32.9305 14.4377 32.796C6.81859 31.5695 1 24.9638 1 17.0006C1 8.16393 8.16393 1 16.9994 1C25.835 1 33 8.16393 33 17.0006Z" fill="#1877F2"/>
<path d="M19.2281 13.8472V17.3327H23.5399L22.8571 22.028H19.2281V32.8456C18.5005 32.9465 17.756 32.9992 17.0004 32.9992C16.1282 32.9992 15.2716 32.9297 14.4375 32.7952V22.028H10.4609V17.3327H14.4375V13.068C14.4375 10.4222 16.5822 8.27637 19.2292 8.27637V8.27861C19.237 8.27861 19.2438 8.27637 19.2516 8.27637H23.541V12.337H20.7382C19.9052 12.337 19.2292 13.0131 19.2292 13.8461L19.2281 13.8472Z" fill="white"/>
</g>
<defs>
<filter id="filter0_d_31_7001" x="0" y="0" width="34" height="36" filterUnits="userSpaceOnUse" color-interpolation-filters="sRGB">
<feFlood flood-opacity="0" result="BackgroundImageFix"/>
<feColorMatrix in="SourceAlpha" type="matrix" values="0 0 0 0 0 0 0 0 0 0 0 0 0 0 0 0 0 0 127 0" result="hardAlpha"/>
<feOffset dy="2"/>
<feComposite in2="hardAlpha" operator="out"/>
<feColorMatrix type="matrix" values="0 0 0 0 0 0 0 0 0 0 0 0 0 0 0 0 0 0 0.5 0"/>
<feBlend mode="normal" in2="BackgroundImageFix" result="effect1_dropShadow_31_7001"/>
<feBlend mode="normal" in="SourceGraphic" in2="effect1_dropShadow_31_7001" result="shape"/>
</filter>
</defs>
</svg>
