<svg width="43" height="44" viewBox="0 0 43 44" fill="none" xmlns="http://www.w3.org/2000/svg">
<path fill-rule="evenodd" clip-rule="evenodd" d="M20.7566 36.9246C20.6708 36.9346 20.5847 36.9437 20.4982 36.9516C15.6681 37.3979 11.2638 34.4954 9.37747 30.0728L5.2244 31.6387L3.76391 24.8337L8.32658 24.3048L8.42312 24.7013C8.69905 19.0729 12.8628 14.3909 18.3669 13.8824C24.4263 13.3226 29.8156 18.033 30.4041 24.4034C30.7645 28.3038 29.2416 31.9222 26.6156 34.2703L28.0886 38.9478L21.357 40.718L20.7566 36.9246Z" fill="black"/>
<path fill-rule="evenodd" clip-rule="evenodd" d="M7.57489 23.4164C8.37842 17.9056 12.6648 13.4361 18.2774 12.9175C24.9149 12.3043 30.7355 17.4571 31.3691 24.3145C31.7364 28.2898 30.2906 32.008 27.7224 34.5588L29.0129 38.6569C29.0925 38.9098 29.0651 39.1843 28.937 39.4165C28.8089 39.6486 28.5913 39.8181 28.3348 39.8856L21.6033 41.6558C21.3383 41.7255 21.0563 41.6798 20.8269 41.53C20.5975 41.3803 20.4422 41.1405 20.3993 40.8699L19.9386 37.959C15.2266 38.1305 11.0006 35.4076 8.88166 31.2959L5.5661 32.546C5.30202 32.6456 5.00765 32.6251 4.75989 32.4899C4.51213 32.3548 4.33559 32.1183 4.27636 31.8424L2.81588 25.0375C2.75854 24.7703 2.81662 24.4913 2.97583 24.2693C3.13504 24.0472 3.38058 23.9026 3.65201 23.8712L7.57489 23.4164ZM7.70485 25.353L4.93533 25.674L5.93562 30.3348L9.03522 29.1661C9.52112 28.9829 10.0651 29.2152 10.2688 29.6928C12.0056 33.7647 16.0362 36.3907 20.4088 35.9867C20.4874 35.9795 20.5657 35.9713 20.6437 35.9621C21.1603 35.9017 21.6325 36.2597 21.7138 36.7734L22.1466 39.5083L26.8583 38.2693L25.6908 34.5617C25.5764 34.1985 25.6853 33.8018 25.9693 33.548C28.3669 31.4041 29.7706 28.0865 29.4386 24.4929C28.8951 18.6095 23.9372 14.3415 18.4558 14.848C13.4751 15.3081 9.64548 19.5587 9.39102 24.7491C9.36744 25.2302 8.9942 25.621 8.51472 25.6666C8.20127 25.6965 7.90457 25.5729 7.70485 25.353Z" fill="black"/>
<path fill-rule="evenodd" clip-rule="evenodd" d="M16.7959 3.88676L25.06 2.68872L25.2519 6.68705C29.8637 7.31984 33.73 10.3112 35.6115 14.4141L39.583 13.318L40.7233 21.6665L36.7471 21.6664C36.2066 26.2778 33.3575 30.1779 29.3951 32.1637L30.448 36.2069L22.2025 37.5271L22.1639 33.5134C17.3256 33.0603 13.2327 30.0216 11.2626 25.7835L7.25447 26.886L6.26074 18.5948L10.0937 18.5056C10.6453 13.6836 13.7204 9.63471 17.956 7.73055L16.7959 3.88676Z" fill="white"/>
<path fill-rule="evenodd" clip-rule="evenodd" d="M26.2934 1.19279C26.7151 1.54042 26.9705 2.04987 26.9967 2.59574L27.1156 5.07369C31.1371 6.07213 34.5275 8.66076 36.5983 12.1306L39.0674 11.4492C39.6064 11.3004 40.1834 11.3916 40.6503 11.6994C41.1171 12.0072 41.4283 12.5016 41.504 13.0556L42.6444 21.4041C42.7201 21.9589 42.5524 22.5193 42.1842 22.9412C41.816 23.3631 41.2834 23.6052 40.7234 23.6052L38.3739 23.6051C37.4448 27.5908 34.9821 30.9809 31.6456 33.112L32.3243 35.7183C32.4621 36.2471 32.3702 36.8096 32.0713 37.2671C31.7724 37.7246 31.2943 38.0348 30.7547 38.1212L22.5093 39.4413C21.9519 39.5306 21.3833 39.3725 20.952 39.0083C20.5208 38.6442 20.2696 38.1101 20.2642 37.5457L20.2414 35.1786C16.0203 34.2842 12.4449 31.6491 10.2831 28.0636L7.76885 28.7552C7.22461 28.9049 6.64214 28.81 6.1736 28.4952C5.70505 28.1805 5.39696 27.6771 5.32978 27.1167L4.33605 18.8255C4.27102 18.2829 4.43802 17.7381 4.79594 17.3251C5.15387 16.9121 5.66947 16.6694 6.21582 16.6567L8.45433 16.6045C9.409 12.4145 12.0568 8.87536 15.6364 6.75387L14.9401 4.44686C14.777 3.90648 14.8575 3.32185 15.1607 2.84568C15.4638 2.36951 15.9593 2.04909 16.518 1.9681L24.7821 0.770067C25.3229 0.691662 25.8717 0.845167 26.2934 1.19279ZM17.9562 7.73052C13.7206 9.63468 10.6456 13.6836 10.0939 18.5056L6.26095 18.5948L7.25468 26.886L11.2629 25.7835C13.2329 30.0216 17.3258 33.0603 22.1641 33.5133L22.2028 37.527L30.4482 36.2069L29.3953 32.1636C33.3578 30.1779 36.2068 26.2778 36.7473 21.6663L40.7235 21.6665L39.5832 13.318L35.6117 14.414C33.7302 10.3112 29.864 7.31981 25.2521 6.68702L25.0602 2.68869L16.7961 3.88672L17.9562 7.73052Z" fill="black"/>
<path d="M31.8445 20.3208C31.8445 24.9045 28.2142 28.6203 23.7359 28.6203C19.2577 28.6203 15.6274 24.9045 15.6274 20.3208C15.6274 15.7372 19.2577 12.0214 23.7359 12.0214C28.2142 12.0214 31.8445 15.7372 31.8445 20.3208Z" fill="black"/>
<path d="M27.676 20.4593C27.676 22.7674 25.8305 24.6385 23.5539 24.6385C21.2774 24.6385 19.4319 22.7674 19.4319 20.4593C19.4319 18.1512 21.2774 16.2802 23.5539 16.2802C25.8305 16.2802 27.676 18.1512 27.676 20.4593Z" fill="#EE1F1F"/>
<path d="M23.4531 19.8637C22.9454 21.0102 21.7857 21.6085 20.8627 21.1998C19.9397 20.7912 19.603 19.5304 20.1106 18.3838C20.6183 17.2372 21.778 16.639 22.701 17.0477C23.624 17.4563 23.9607 18.7171 23.4531 19.8637Z" fill="#FF6F20"/>
<path d="M7.65314 1.57251L4.24294 3.71897L9.0351 9.42218L11.24 7.92283L7.65314 1.57251Z" fill="black"/>
<path d="M0.333008 11.0391L1.77356 7.65824L7.03605 10.2747L5.94829 12.7149L0.333008 11.0391Z" fill="black"/>
</svg>
