<svg width="50" height="50" viewBox="0 0 50 50" fill="none" xmlns="http://www.w3.org/2000/svg">
<path d="M43.9795 29.8973C43.9795 30.0978 43.8402 30.2721 43.6445 30.3153L41.0566 30.8837V31.2157L43.8232 33.4843C43.9221 33.5654 43.9795 33.6865 43.9795 33.8143V36.8534C43.9795 37.0463 43.8503 37.2161 43.6641 37.2665L18.9961 43.9296C18.8297 43.9744 18.6524 43.9154 18.5469 43.7792L5.6875 27.1786C5.63371 27.1091 5.60276 27.0241 5.59863 26.9364L5.13086 16.9999C5.12185 16.8084 5.24176 16.6342 5.42383 16.5741L30.0322 8.4491C30.2073 8.39131 30.4 8.45238 30.5098 8.60046L43.8955 26.662C43.95 26.7356 43.9795 26.8253 43.9795 26.9169V29.8973Z" fill="#1D50B3" stroke="black" stroke-width="0.854328" stroke-linejoin="round"/>
<path d="M21.0447 41.1435V36.6597L40.6287 30.5538V35.4046L21.0447 41.1435Z" fill="#A0DDF3"/>
<mask id="mask0_229_2766" style="mask-type:alpha" maskUnits="userSpaceOnUse" x="5" y="8" width="37" height="34">
<path d="M28.6016 8.85437L5.55762 16.463L5.99546 25.7681L18.0374 41.3132L41.1362 35.0732V32.227L38.3993 29.9828V29.1617L41.1362 28.5596V25.7681L28.6016 8.85437Z" fill="#1D50B3"/>
</mask>
<g mask="url(#mask0_229_2766)">
<path d="M18.9338 34.9016V43.5914" stroke="#225AC0" stroke-width="0.213582"/>
<path d="M30.0952 8.3988L5.34302 16.6491L18.7888 34.9675C18.8435 35.0421 18.9401 35.0729 19.028 35.0439L44.3595 26.667L30.0952 8.3988Z" fill="#3683F7"/>
</g>
<path d="M24.0442 20.5213L36.3476 24.0154C36.8482 24.1575 36.8705 24.8587 36.38 25.0324L20.633 30.6081C20.193 30.7639 19.7789 30.3197 19.9652 29.8916L24.0442 20.5213ZM24.0442 20.5213L23.2825 18.827C24.9962 15.7514 21.8354 13.5328 19.7436 15.7517" stroke="white" stroke-width="1.70866" stroke-linecap="round" stroke-linejoin="round"/>
<path d="M40.3445 7.72559C40.5664 7.38209 41.0996 7.40648 41.2771 7.79883L43.1208 11.8799L47.2009 13.7227C47.6196 13.9119 47.6195 14.506 47.2009 14.6953L43.1199 16.5381L41.2771 20.6191C41.0878 21.0377 40.4937 21.0378 40.3044 20.6191L38.4617 16.5391L34.3806 14.6953C33.9622 14.506 33.9622 13.9119 34.3806 13.7227L38.4607 11.8789L40.3044 7.79883L40.3445 7.72559Z" fill="#FFFF33" stroke="black" stroke-width="0.640746"/>
<path d="M7.80469 28.4417C7.99106 28.1529 8.42192 28.1531 8.6084 28.4417L8.64453 28.5081L10.1836 31.9153L13.5928 33.4553C13.9695 33.6256 13.9694 34.1609 13.5928 34.3313L10.1836 35.8704L8.64453 39.2795C8.47411 39.6561 7.93887 39.6562 7.76855 39.2795L6.22852 35.8704L2.82129 34.3313C2.44428 34.161 2.44428 33.6256 2.82129 33.4553L6.22852 31.9153L7.76855 28.5081L7.80469 28.4417Z" fill="#FFFF33" stroke="black" stroke-width="0.533955"/>
</svg>
