<svg width="40" height="40" viewBox="0 0 40 40" fill="none" xmlns="http://www.w3.org/2000/svg">
<path d="M2.2134 9.29828L3.68448 4.66791C3.73051 4.52304 3.90262 4.46278 4.02897 4.5473L9.56526 8.25083C9.6427 8.30263 9.68089 8.3963 9.66174 8.48748L9.16944 10.8317C9.14339 10.9557 9.02133 11.0348 8.89751 11.0078L2.38244 9.59046C2.25103 9.56187 2.17268 9.42645 2.2134 9.29828Z" fill="white"/>
<path d="M12.0669 0.931673L9.45174 1.65442C9.31501 1.6922 9.24549 1.84423 9.30634 1.97237L11.6328 6.87132C11.6797 6.97009 11.79 7.02173 11.8959 6.99445L13.2847 6.63674C13.4028 6.60631 13.4762 6.48839 13.4512 6.36898L12.3512 1.10501C12.3242 0.97601 12.194 0.896568 12.0669 0.931673Z" fill="white"/>
<path d="M12.0265 12.7596C12.3082 12.1734 13.022 11.9407 13.5951 12.2484L19.0758 15.1906C19.2676 15.2935 19.4849 15.3395 19.7019 15.323L25.9047 14.8531C26.5532 14.8039 27.1116 15.3058 27.1317 15.9559L27.3241 22.1735C27.3308 22.391 27.3996 22.6022 27.5224 22.7819L31.0308 27.9187C31.3976 28.4557 31.2422 29.1903 30.6893 29.5328L25.4009 32.8081C25.2158 32.9227 25.0674 33.0879 24.9731 33.2841L22.2787 38.8908C21.997 39.477 21.2831 39.7097 20.7101 39.4021L15.2294 36.4599C15.0376 36.3569 14.8203 36.311 14.6033 36.3274L8.40052 36.7974C7.75199 36.8465 7.19356 36.3446 7.17344 35.6946L6.98109 29.477C6.97436 29.2594 6.90555 29.0483 6.78278 28.8685L3.27439 23.7318C2.90757 23.1947 3.06301 22.4601 3.61593 22.1177L8.90432 18.8423C9.08939 18.7277 9.23781 18.5626 9.3321 18.3664L12.0265 12.7596Z" fill="black"/>
<mask id="mask0_45_10278" style="mask-type:alpha" maskUnits="userSpaceOnUse" x="8" y="4" width="30" height="33">
<path d="M20.723 4.61835L27.1489 9.81479L35.3614 10.7361L34.0741 18.8992L37.3825 26.4721L29.6693 29.4389L24.7652 36.0905L18.3393 30.894L10.1268 29.9727L11.4141 21.8096L8.10575 14.2367L15.8189 11.27L20.723 4.61835Z" fill="#D9D9D9"/>
</mask>
<g mask="url(#mask0_45_10278)">
<path d="M-1.96558 18.8098L27.8076 -3.88667L37.7719 9.18448L7.99873 31.881L-1.96558 18.8098Z" fill="#FFE25B"/>
<path d="M22.8855 20.5327L20.4678 1.70871L5.37456 13.2145L22.8855 20.5327Z" fill="white"/>
<path d="M47.7363 22.2556L17.9632 44.9521L7.99885 31.881L37.772 9.18447L47.7363 22.2556Z" fill="#FFBE20"/>
<path d="M22.8853 20.5327L25.3029 39.3567L40.3962 27.8509L22.8853 20.5327Z" fill="#EF7527"/>
</g>
<path fill-rule="evenodd" clip-rule="evenodd" d="M27.8367 8.16914L21.9853 3.43722C21.1256 2.74198 19.8596 2.90458 19.2034 3.79451L14.7377 9.85153L7.71402 12.553C6.68207 12.95 6.18987 14.1277 6.63251 15.1409L9.64517 22.0368L8.47291 29.4703C8.30068 30.5624 9.0745 31.5775 10.1733 31.7008L17.6517 32.5397L23.5031 37.2716C24.3628 37.9669 25.6288 37.8043 26.285 36.9143L30.7507 30.8573L37.7744 28.1558C38.8063 27.7589 39.2985 26.5812 38.8559 25.568L35.8432 18.672L37.0155 11.2386C37.1877 10.1464 36.4139 9.13134 35.3151 9.00808L27.8367 8.16914ZM20.9087 4.76848C20.8076 4.68669 20.6587 4.70582 20.5815 4.81052L15.8586 11.2163C15.8327 11.2514 15.7974 11.2783 15.7568 11.2939L8.32865 14.151C8.20724 14.1977 8.14933 14.3363 8.20141 14.4555L11.3876 21.7485C11.405 21.7884 11.4106 21.8325 11.4039 21.8755L10.1641 29.737C10.1438 29.8654 10.2349 29.9849 10.3641 29.9994L18.2732 30.8866C18.3164 30.8915 18.3574 30.9086 18.3913 30.936L24.5797 35.9404C24.6808 36.0222 24.8297 36.003 24.9069 35.8983L29.6298 29.4925C29.6557 29.4575 29.691 29.4306 29.7316 29.4149L37.1598 26.5579C37.2812 26.5112 37.3391 26.3726 37.287 26.2534L34.1008 18.9604C34.0834 18.9205 34.0778 18.8764 34.0845 18.8334L35.3243 10.9719C35.3446 10.8434 35.2535 10.724 35.1243 10.7095L27.2152 9.82224C27.172 9.81739 27.131 9.80027 27.0971 9.77289L20.9087 4.76848Z" fill="black"/>
</svg>
