<svg width="40" height="40" viewBox="0 0 40 40" fill="none" xmlns="http://www.w3.org/2000/svg">
<g filter="url(#filter0_d_45_10304)">
<path d="M6.01251 8.38721C6.14965 7.1871 7.13978 6.26529 8.34662 6.21415L34.1518 5.12084C35.6524 5.05726 36.8575 6.34464 36.6951 7.83781L34.1171 31.5412C33.9854 32.7524 32.985 33.6835 31.7675 33.7281L5.84807 34.6779C4.34737 34.7329 3.14974 33.4391 3.32023 31.9471L6.01251 8.38721Z" fill="white"/>
<path d="M34.1258 4.50823C36.0016 4.42876 37.5077 6.0379 37.3047 7.90436L34.7271 31.6073C34.5625 33.1211 33.312 34.2852 31.7903 34.3412L5.87021 35.2912C3.99459 35.3597 2.49829 33.7425 2.71121 31.8778L5.40328 8.31745C5.57476 6.81738 6.81259 5.66472 8.32109 5.60081L34.1258 4.50823Z" stroke="black" stroke-width="1.22693"/>
</g>
<path d="M19.7354 8.87134C23.026 8.87153 25.6934 11.5397 25.6934 14.8303C25.6932 16.6777 24.8521 18.3283 23.5322 19.4211C26.6062 20.5218 28.849 23.4111 28.958 26.8723C28.9978 28.1346 28.0064 29.19 26.7441 29.2297L13.5488 29.6458C12.2866 29.6855 11.2312 28.6942 11.1914 27.4319C11.0817 23.9464 13.1674 20.9027 16.2002 19.6262C14.7304 18.5412 13.7765 16.7974 13.7764 14.8303C13.7764 11.5395 16.4446 8.87134 19.7354 8.87134Z" fill="black"/>
<defs>
<filter id="filter0_d_45_10304" x="2.0769" y="3.8916" width="35.8601" height="33.4872" filterUnits="userSpaceOnUse" color-interpolation-filters="sRGB">
<feFlood flood-opacity="0" result="BackgroundImageFix"/>
<feColorMatrix in="SourceAlpha" type="matrix" values="0 0 0 0 0 0 0 0 0 0 0 0 0 0 0 0 0 0 127 0" result="hardAlpha"/>
<feOffset dy="1.47231"/>
<feComposite in2="hardAlpha" operator="out"/>
<feColorMatrix type="matrix" values="0 0 0 0 0 0 0 0 0 0 0 0 0 0 0 0 0 0 0.5 0"/>
<feBlend mode="normal" in2="BackgroundImageFix" result="effect1_dropShadow_45_10304"/>
<feBlend mode="normal" in="SourceGraphic" in2="effect1_dropShadow_45_10304" result="shape"/>
</filter>
</defs>
</svg>
