<svg width="51" height="139" viewBox="0 0 51 139" fill="none" xmlns="http://www.w3.org/2000/svg">
<g filter="url(#filter0_d_39_8548)">
<path d="M25.4999 89.7268L25.4999 121.899L17.5536 124.26C16.9506 124.439 16.2758 124.309 15.8317 123.929C-1.56359 109.02 25.4999 89.7268 25.4999 89.7268Z" fill="#FE9515"/>
<path d="M25.5 121.899L25.5 89.7268C25.5 89.7268 52.5635 109.019 35.1682 123.929C34.7241 124.309 34.0493 124.439 33.4463 124.26L25.5 121.899Z" fill="#EE8007"/>
<path d="M25.0583 124.527L23.0676 57.9443L27.9323 57.9443L25.9416 124.527C25.9339 124.791 25.7384 125 25.5 125C25.2615 125 25.066 124.791 25.0583 124.527Z" fill="#FF9513"/>
<path d="M25.4999 89.7268L25.4999 121.899L21.5268 124.26C21.2252 124.439 20.8876 124.309 20.6656 123.929C11.9679 109.02 25.4999 89.7268 25.4999 89.7268Z" fill="#F28814"/>
<path d="M25.5 121.899L25.5 89.7268C25.5 89.7268 39.032 109.019 30.3343 123.929C30.1123 124.309 29.7746 124.439 29.4731 124.26L25.5 121.899Z" fill="#FFB218"/>
<path d="M24.1965 58.5234L24.4475 80.1747L24.9171 58.5234L24.1965 58.5234Z" fill="#FCA444"/>
<path d="M25.5 6C26.4017 11.1142 26.4017 26.7663 26.4017 26.7663L24.5984 26.7663C24.5984 26.7663 24.5984 11.1142 25.5 6Z" fill="#DBAE56"/>
<path d="M23.0676 29.7702L23.0676 27.2665C23.0676 26.8405 23.4867 26.4954 24.0039 26.4954L26.9955 26.4954C27.5128 26.4954 27.9318 26.8405 27.9318 27.2665L27.9318 29.7702L23.0671 29.7702L23.0676 29.7702Z" fill="#E8C761"/>
<path d="M22.3621 30.0737L22.3621 57.4608C22.3621 57.8634 22.7589 58.1902 23.2478 58.1902L27.7517 58.1902C28.2406 58.1902 28.6375 57.8634 28.6375 57.4608L28.6375 30.0737C28.6375 29.6711 28.2406 29.3442 27.7517 29.3442L23.2478 29.3442C22.7589 29.3442 22.3621 29.6711 22.3621 30.0737Z" fill="#F1D46F"/>
<path d="M29.2391 56.2272C29.2391 55.9539 28.9699 55.7322 28.638 55.7322L22.3621 55.7322C22.0302 55.7322 21.761 55.9539 21.761 56.2272C21.761 56.5005 22.0302 56.7223 22.3621 56.7223L28.638 56.7223C28.9699 56.7223 29.2391 56.5005 29.2391 56.2272Z" fill="#E8C761"/>
<path d="M29.2391 54.5561C29.2391 54.2828 28.9699 54.061 28.638 54.061L22.3621 54.061C22.0302 54.061 21.761 54.2828 21.761 54.5561C21.761 54.8294 22.0302 55.0511 22.3621 55.0511L28.638 55.0511C28.9699 55.0511 29.2391 54.8294 29.2391 54.5561Z" fill="#E8C761"/>
<path d="M29.2391 52.8849C29.2391 52.6116 28.9699 52.3899 28.638 52.3899L22.3621 52.3899C22.0302 52.3899 21.761 52.6116 21.761 52.8849C21.761 53.1582 22.0302 53.38 22.3621 53.38L28.638 53.38C28.9699 53.38 29.2391 53.1582 29.2391 52.8849Z" fill="#E8C761"/>
<path d="M29.2391 51.2138C29.2391 50.9405 28.9699 50.7188 28.638 50.7188L22.3621 50.7188C22.0302 50.7188 21.761 50.9405 21.761 51.2138C21.761 51.4871 22.0302 51.7088 22.3621 51.7088L28.638 51.7088C28.9699 51.7088 29.2391 51.4871 29.2391 51.2138Z" fill="#E8C761"/>
<path d="M29.2391 49.5426C29.2391 49.2693 28.9699 49.0476 28.638 49.0476L22.3621 49.0476C22.0302 49.0476 21.761 49.2693 21.761 49.5426C21.761 49.8159 22.0302 50.0377 22.3621 50.0377L28.638 50.0377C28.9699 50.0377 29.2391 49.816 29.2391 49.5426Z" fill="#E8C761"/>
<path d="M29.2391 47.8715C29.2391 47.5982 28.9699 47.3765 28.638 47.3765L22.3621 47.3765C22.0302 47.3765 21.761 47.5982 21.761 47.8715C21.761 48.1448 22.0302 48.3665 22.3621 48.3665L28.638 48.3665C28.9699 48.3665 29.2391 48.1448 29.2391 47.8715Z" fill="#E8C761"/>
<path d="M29.2391 46.2001C29.2391 45.9268 28.9699 45.7051 28.638 45.7051L22.3621 45.7051C22.0302 45.7051 21.761 45.9268 21.761 46.2001C21.761 46.4734 22.0302 46.6952 22.3621 46.6952L28.638 46.6952C28.9699 46.6952 29.2391 46.4734 29.2391 46.2001Z" fill="#E8C761"/>
<path d="M29.2391 44.529C29.2391 44.2557 28.9699 44.0339 28.638 44.0339L22.3621 44.0339C22.0302 44.0339 21.761 44.2557 21.761 44.529C21.761 44.8023 22.0302 45.024 22.3621 45.024L28.638 45.024C28.9699 45.024 29.2391 44.8023 29.2391 44.529Z" fill="#E8C761"/>
<path d="M29.2391 42.8578C29.2391 42.5845 28.9699 42.3628 28.638 42.3628L22.3621 42.3628C22.0302 42.3628 21.761 42.5845 21.761 42.8578C21.761 43.1311 22.0302 43.3529 22.3621 43.3529L28.638 43.3529C28.9699 43.3529 29.2391 43.1311 29.2391 42.8578Z" fill="#E8C761"/>
<path d="M29.2391 41.1867C29.2391 40.9134 28.9699 40.6917 28.638 40.6917L22.3621 40.6917C22.0302 40.6917 21.761 40.9134 21.761 41.1867C21.761 41.46 22.0302 41.6817 22.3621 41.6817L28.638 41.6817C28.9699 41.6817 29.2391 41.46 29.2391 41.1867Z" fill="#E8C761"/>
<path d="M29.2391 39.5155C29.2391 39.2422 28.9699 39.0205 28.638 39.0205L22.3621 39.0205C22.0302 39.0205 21.761 39.2422 21.761 39.5155C21.761 39.7889 22.0302 40.0106 22.3621 40.0106L28.638 40.0106C28.9699 40.0106 29.2391 39.7889 29.2391 39.5155Z" fill="#E8C761"/>
<path d="M29.2391 37.8444C29.2391 37.5711 28.9699 37.3494 28.638 37.3494L22.3621 37.3494C22.0302 37.3494 21.761 37.5711 21.761 37.8444C21.761 38.1177 22.0302 38.3394 22.3621 38.3394L28.638 38.3394C28.9699 38.3394 29.2391 38.1177 29.2391 37.8444Z" fill="#E8C761"/>
<path d="M29.2391 36.1733C29.2391 35.9 28.9699 35.6782 28.638 35.6782L22.3621 35.6782C22.0302 35.6782 21.761 35.9 21.761 36.1733C21.761 36.4466 22.0302 36.6683 22.3621 36.6683L28.638 36.6683C28.9699 36.6683 29.2391 36.4466 29.2391 36.1733Z" fill="#E8C761"/>
<path d="M29.2391 34.5021C29.2391 34.2288 28.9699 34.0071 28.638 34.0071L22.3621 34.0071C22.0302 34.0071 21.761 34.2288 21.761 34.5021C21.761 34.7754 22.0302 34.9972 22.3621 34.9972L28.638 34.9972C28.9699 34.9972 29.2391 34.7754 29.2391 34.5021Z" fill="#E8C761"/>
<path d="M29.2391 32.831C29.2391 32.5577 28.9699 32.3359 28.638 32.3359L22.3621 32.3359C22.0302 32.3359 21.761 32.5577 21.761 32.831C21.761 33.1043 22.0302 33.326 22.3621 33.326L28.638 33.326C28.9699 33.326 29.2391 33.1043 29.2391 32.831Z" fill="#E8C761"/>
<path d="M24.9817 26.1411L25.2639 12.6846L25.2639 26.1411L24.9817 26.1411Z" fill="#F2CE8F"/>
</g>
<defs>
<filter id="filter0_d_39_8548" x="0" y="0" width="51" height="139" filterUnits="userSpaceOnUse" color-interpolation-filters="sRGB">
<feFlood flood-opacity="0" result="BackgroundImageFix"/>
<feColorMatrix in="SourceAlpha" type="matrix" values="0 0 0 0 0 0 0 0 0 0 0 0 0 0 0 0 0 0 127 0" result="hardAlpha"/>
<feOffset dy="4"/>
<feGaussianBlur stdDeviation="5"/>
<feComposite in2="hardAlpha" operator="out"/>
<feColorMatrix type="matrix" values="0 0 0 0 0 0 0 0 0 0 0 0 0 0 0 0 0 0 0.3 0"/>
<feBlend mode="normal" in2="BackgroundImageFix" result="effect1_dropShadow_39_8548"/>
<feBlend mode="normal" in="SourceGraphic" in2="effect1_dropShadow_39_8548" result="shape"/>
</filter>
</defs>
</svg>
