<svg width="50" height="50" viewBox="0 0 50 50" fill="none" xmlns="http://www.w3.org/2000/svg">
<g filter="url(#filter0_d_229_256)">
<mask id="path-1-outside-1_229_256" maskUnits="userSpaceOnUse" x="-1.45693" y="-2.35119" width="54.057" height="54.057" fill="black">
<rect fill="white" x="-1.45693" y="-2.35119" width="54.057" height="54.057"/>
<path d="M19.2719 8.51434C22.3114 1.11885 28.5745 4.19881 28.9929 8.30615L30.8649 8.09194C31.1208 8.06271 31.3535 8.24343 31.389 8.49849L31.7247 10.9139L35.1891 10.7189C35.5143 10.7006 35.8008 10.9316 35.8506 11.2535L35.9113 11.6472L36.328 11.6329C36.5598 11.6244 36.7641 11.7847 36.8107 12.0118L40.1595 28.3449L41.0407 29.042C41.0844 29.0769 41.0792 29.1454 41.0306 29.1731L40.4024 29.5279L42.0461 37.5467L40.2577 40.2012L13.6475 41.7788L8.04507 15.4652L9.90129 12.5985L11.8705 12.5261L12.1096 12.0192L15.9217 11.8043L15.5915 11.6987L17.2282 8.88691L19.2719 8.51434ZM25.3684 6.45357C24.312 6.11601 23.1812 6.69854 22.8431 7.75479C22.5051 8.81127 23.088 9.94183 24.1443 10.2801C25.201 10.6182 26.3316 10.0356 26.6696 8.9789C27.0074 7.92231 26.425 6.79157 25.3684 6.45357Z"/>
</mask>
<path d="M19.2719 8.51434L19.4588 9.53935L20.0191 9.43721L20.2356 8.91041L19.2719 8.51434ZM28.9929 8.30615L27.9563 8.41174L28.0632 9.46122L29.1113 9.3413L28.9929 8.30615ZM30.8649 8.09194L30.7467 7.05677L30.7465 7.05679L30.8649 8.09194ZM31.389 8.49849L32.421 8.35507L32.421 8.35471L31.389 8.49849ZM31.7247 10.9139L30.6927 11.0573L30.8249 12.008L31.7832 11.9541L31.7247 10.9139ZM35.1891 10.7189L35.2476 11.7592L35.2477 11.7592L35.1891 10.7189ZM35.8506 11.2535L36.8803 11.0948L36.8803 11.0943L35.8506 11.2535ZM35.9113 11.6472L34.8815 11.8059L35.0225 12.7202L35.9471 12.6885L35.9113 11.6472ZM36.328 11.6329L36.3638 12.6741L36.3661 12.6741L36.328 11.6329ZM36.8107 12.0118L37.8314 11.8025L37.8314 11.8025L36.8107 12.0118ZM40.1595 28.3449L39.1388 28.5541L39.2151 28.9263L39.513 29.162L40.1595 28.3449ZM41.0407 29.042L41.6907 28.2277L41.6871 28.2249L41.0407 29.042ZM41.0306 29.1731L41.5429 30.0803L41.5461 30.0785L41.0306 29.1731ZM40.4024 29.5279L39.89 28.6206L39.2293 28.9937L39.3817 29.7371L40.4024 29.5279ZM42.0461 37.5467L42.9102 38.1288L43.1546 37.766L43.0668 37.3375L42.0461 37.5467ZM40.2577 40.2012L40.3194 41.2413L40.8338 41.2108L41.1218 40.7834L40.2577 40.2012ZM13.6475 41.7788L12.6285 41.9958L12.815 42.8719L13.7092 42.8189L13.6475 41.7788ZM8.04507 15.4652L7.17051 14.8989L6.93626 15.2606L7.02601 15.6821L8.04507 15.4652ZM9.90129 12.5985L9.86301 11.5573L9.32134 11.5773L9.02673 12.0322L9.90129 12.5985ZM11.8705 12.5261L11.9088 13.5673L12.5424 13.544L12.8129 12.9706L11.8705 12.5261ZM12.1096 12.0192L12.0509 10.979L11.4317 11.0139L11.1672 11.5748L12.1096 12.0192ZM15.9217 11.8043L15.9804 12.8446L16.2392 10.8119L15.9217 11.8043ZM15.5915 11.6987L14.6911 11.1745L14.0384 12.2958L15.2741 12.691L15.5915 11.6987ZM17.2282 8.88691L17.0414 7.8619L16.5692 7.94797L16.3278 8.36276L17.2282 8.88691ZM25.3684 6.45357L25.6858 5.46121L25.6855 5.4611L25.3684 6.45357ZM22.8431 7.75479L21.8508 7.43714L21.8507 7.43734L22.8431 7.75479ZM24.1443 10.2801L23.8265 11.2724L23.8268 11.2725L24.1443 10.2801ZM26.6696 8.9789L27.662 9.29636L27.662 9.29616L26.6696 8.9789ZM19.2719 8.51434L20.2356 8.91041C20.9403 7.1957 21.7899 6.19098 22.5959 5.64868C23.389 5.11504 24.1945 4.98985 24.931 5.12217C26.469 5.39848 27.794 6.81785 27.9563 8.41174L28.9929 8.30615L30.0294 8.20055C29.7734 5.68711 27.7576 3.51283 25.2995 3.0712C24.038 2.84455 22.6817 3.07931 21.4326 3.9198C20.1963 4.75164 19.1232 6.13524 18.3082 8.11828L19.2719 8.51434ZM28.9929 8.30615L29.1113 9.3413L30.9834 9.12709L30.8649 8.09194L30.7465 7.05679L28.8744 7.271L28.9929 8.30615ZM30.8649 8.09194L30.9832 9.12711C30.6761 9.1622 30.3994 8.94594 30.3571 8.64227L31.389 8.49849L32.421 8.35471C32.3076 7.54091 31.5656 6.96321 30.7467 7.05677L30.8649 8.09194ZM31.389 8.49849L30.357 8.64192L30.6927 11.0573L31.7247 10.9139L32.7567 10.7704L32.421 8.35507L31.389 8.49849ZM31.7247 10.9139L31.7832 11.9541L35.2476 11.7592L35.1891 10.7189L35.1305 9.67867L31.6662 9.8736L31.7247 10.9139ZM35.1891 10.7189L35.2477 11.7592C35.0398 11.7709 34.8535 11.6231 34.8209 11.4127L35.8506 11.2535L36.8803 11.0943C36.7482 10.2401 35.9888 9.63031 35.1304 9.67868L35.1891 10.7189ZM35.8506 11.2535L34.8209 11.4123L34.8815 11.8059L35.9113 11.6472L36.941 11.4884L36.8803 11.0948L35.8506 11.2535ZM35.9113 11.6472L35.9471 12.6885L36.3638 12.6741L36.328 11.6329L36.2922 10.5916L35.8755 10.6059L35.9113 11.6472ZM36.328 11.6329L36.3661 12.6741C36.0901 12.6841 35.846 12.4937 35.7901 12.2211L36.8107 12.0118L37.8314 11.8025C37.6823 11.0756 37.0294 10.5646 36.29 10.5916L36.328 11.6329ZM36.8107 12.0118L35.79 12.2211L39.1388 28.5541L40.1595 28.3449L41.1801 28.1356L37.8314 11.8025L36.8107 12.0118ZM40.1595 28.3449L39.513 29.162L40.3943 29.8591L41.0407 29.042L41.6871 28.2249L40.8059 27.5277L40.1595 28.3449ZM41.0407 29.042L40.3908 29.8564C39.8608 29.4334 39.921 28.6059 40.515 28.2677L41.0306 29.1731L41.5461 30.0785C42.2373 29.6849 42.308 28.7204 41.6907 28.2277L41.0407 29.042ZM41.0306 29.1731L40.5182 28.2659L39.89 28.6206L40.4024 29.5279L40.9147 30.4351L41.5429 30.0803L41.0306 29.1731ZM40.4024 29.5279L39.3817 29.7371L41.0254 37.7559L42.0461 37.5467L43.0668 37.3375L41.4231 29.3186L40.4024 29.5279ZM42.0461 37.5467L41.182 36.9645L39.3936 39.6191L40.2577 40.2012L41.1218 40.7834L42.9102 38.1288L42.0461 37.5467ZM40.2577 40.2012L40.196 39.1612L13.5859 40.7387L13.6475 41.7788L13.7092 42.8189L40.3194 41.2413L40.2577 40.2012ZM13.6475 41.7788L14.6666 41.5618L9.06413 15.2482L8.04507 15.4652L7.02601 15.6821L12.6285 41.9958L13.6475 41.7788ZM8.04507 15.4652L8.91964 16.0315L10.7759 13.1648L9.90129 12.5985L9.02673 12.0322L7.17051 14.8989L8.04507 15.4652ZM9.90129 12.5985L9.93957 13.6397L11.9088 13.5673L11.8705 12.5261L11.8322 11.4849L9.86301 11.5573L9.90129 12.5985ZM11.8705 12.5261L12.8129 12.9706L13.0519 12.4636L12.1096 12.0192L11.1672 11.5748L10.9281 12.0817L11.8705 12.5261ZM12.1096 12.0192L12.1682 13.0595L15.9804 12.8446L15.9217 11.8043L15.8631 10.7641L12.0509 10.979L12.1096 12.0192ZM15.9217 11.8043L16.2392 10.8119L15.909 10.7063L15.5915 11.6987L15.2741 12.691L15.6043 12.7967L15.9217 11.8043ZM15.5915 11.6987L16.492 12.2228L18.1287 9.41105L17.2282 8.88691L16.3278 8.36276L14.6911 11.1745L15.5915 11.6987ZM17.2282 8.88691L17.4151 9.91192L19.4588 9.53935L19.2719 8.51434L19.0851 7.48933L17.0414 7.8619L17.2282 8.88691ZM25.3684 6.45357L25.6855 5.4611C24.0814 4.94852 22.3643 5.83288 21.8508 7.43714L22.8431 7.75479L23.8354 8.07244C23.9981 7.56421 24.5426 7.2835 25.0513 7.44604L25.3684 6.45357ZM22.8431 7.75479L21.8507 7.43734C21.3373 9.0422 22.2228 10.7588 23.8265 11.2724L24.1443 10.2801L24.4621 9.28786C23.9532 9.1249 23.6729 8.58034 23.8354 8.07224L22.8431 7.75479ZM24.1443 10.2801L23.8268 11.2725C25.4316 11.7858 27.1486 10.9011 27.662 9.29636L26.6696 8.9789L25.6773 8.66143C25.5145 9.17007 24.9704 9.45046 24.4617 9.28776L24.1443 10.2801ZM26.6696 8.9789L27.662 9.29616C28.1749 7.69181 27.2907 5.97459 25.6858 5.46121L25.3684 6.45357L25.0509 7.44593C25.5593 7.60854 25.8399 8.1528 25.6772 8.66163L26.6696 8.9789Z" fill="black" mask="url(#path-1-outside-1_229_256)"/>
</g>
<path d="M8.04552 15.4655L9.90149 12.5982L36.7306 11.6183L42.0461 37.5469L40.2583 40.2015L13.6482 41.7791L8.04552 15.4655Z" fill="#C65229"/>
<mask id="mask0_229_256" style="mask-type:alpha" maskUnits="userSpaceOnUse" x="8" y="11" width="35" height="31">
<path d="M8.04504 15.4653L9.90101 12.5981L36.7301 11.6182L42.0456 37.5467L40.2578 40.2013L13.6477 41.779L8.04504 15.4653Z" fill="#D9D9D9"/>
</mask>
<g mask="url(#mask0_229_256)">
<path d="M15.609 39.0459L9.82823 12.031L37.4146 10.4908L42.8584 37.5738L15.609 39.0459Z" fill="#FFA15E"/>
</g>
<path d="M11.0968 14.1744L12.1097 12.0188L35.7625 10.6861L39.1526 32.6364L38.488 34.7138L16.2988 36.515L11.0968 14.1744Z" fill="#00AADD"/>
<mask id="mask1_229_256" style="mask-type:alpha" maskUnits="userSpaceOnUse" x="11" y="10" width="29" height="27">
<path d="M11.0968 14.1744L12.1097 12.0188L35.7625 10.6861L39.1526 32.6364L38.488 34.7138L16.2988 36.515L11.0968 14.1744Z" fill="#C85227"/>
</mask>
<g mask="url(#mask1_229_256)">
<path d="M16.2291 36.6861L17.385 34.708L39.5637 32.666L38.8772 34.8118L16.2291 36.6861Z" fill="#8FDFF6"/>
<path d="M17.3781 34.7102L12.093 11.9038L35.7757 10.5748L38.3008 26.8485L33.9487 33.1771L17.3781 34.7102Z" fill="white"/>
</g>
<path d="M41.1326 29.1149L38.2957 26.8722L33.9376 33.1857L41.1326 29.1149Z" fill="#8BE0F5"/>
<path d="M18.2211 26.5946L20.2722 23.0953L24.3516 26.0719L29.6661 15.9428L34.8721 19.121L25.0901 31.054L18.2211 26.5946Z" fill="#005CE1"/>
<path d="M19.2725 8.51442C22.3119 1.11884 28.5751 4.19881 28.9934 8.30623L30.8655 8.09202C31.1214 8.06278 31.3541 8.24342 31.3896 8.49857L32.1516 13.9817L17.7976 14.3299L17.1175 12.1867L15.5921 11.6988L17.2288 8.88699L19.2725 8.51442ZM25.3689 6.45365C24.3124 6.1158 23.1817 6.69843 22.8436 7.75487C22.5056 8.8115 23.0883 9.94208 24.1448 10.2802C25.2015 10.6182 26.3321 10.0357 26.6702 8.97898C27.008 7.92237 26.4255 6.79165 25.3689 6.45365Z" fill="#7DD4F8"/>
<mask id="mask2_229_256" style="mask-type:alpha" maskUnits="userSpaceOnUse" x="15" y="4" width="18" height="11">
<path d="M19.2725 8.51442C22.3119 1.11884 28.5751 4.19881 28.9934 8.30623L30.8655 8.09202C31.1214 8.06278 31.3541 8.24342 31.3896 8.49857L32.1516 13.9817L17.7976 14.3299L17.1175 12.1867L15.5921 11.6988L17.2288 8.88699L19.2725 8.51442ZM25.3689 6.45365C24.3124 6.1158 23.1817 6.69843 22.8436 7.75487C22.5056 8.8115 23.0883 9.94208 24.1448 10.2802C25.2015 10.6182 26.3321 10.0357 26.6702 8.97898C27.008 7.92237 26.4255 6.79165 25.3689 6.45365Z" fill="#7DD4F8"/>
</mask>
<g mask="url(#mask2_229_256)">
<path d="M17.8602 14.4876L17.2622 8.47703L14.99 11.2508L17.8602 14.4876Z" fill="#D9D9D9"/>
</g>
<defs>
<filter id="filter0_d_229_256" x="6.46169" y="2.98975" width="36.6929" height="41.464" filterUnits="userSpaceOnUse" color-interpolation-filters="sRGB">
<feFlood flood-opacity="0" result="BackgroundImageFix"/>
<feColorMatrix in="SourceAlpha" type="matrix" values="0 0 0 0 0 0 0 0 0 0 0 0 0 0 0 0 0 0 127 0" result="hardAlpha"/>
<feOffset dx="-0.474591" dy="1.58197"/>
<feComposite in2="hardAlpha" operator="out"/>
<feColorMatrix type="matrix" values="0 0 0 0 0 0 0 0 0 0 0 0 0 0 0 0 0 0 0.25 0"/>
<feBlend mode="normal" in2="BackgroundImageFix" result="effect1_dropShadow_229_256"/>
<feBlend mode="normal" in="SourceGraphic" in2="effect1_dropShadow_229_256" result="shape"/>
</filter>
</defs>
</svg>
