<svg width="41" height="37" viewBox="0 0 41 37" fill="none" xmlns="http://www.w3.org/2000/svg">
<g filter="url(#filter0_d_229_2398)">
<mask id="path-1-outside-1_229_2398" maskUnits="userSpaceOnUse" x="0.150145" y="-0.600094" width="41.8131" height="36.6379" fill="black">
<rect fill="white" x="0.150145" y="-0.600094" width="41.8131" height="36.6379"/>
<path d="M35.1987 1.75962C36.1122 1.64071 36.9492 2.28481 37.0681 3.1983L38.2102 11.971C38.4322 13.6769 37.7749 15.2938 36.5904 16.3682L38.1782 28.5641C38.3073 29.556 37.6076 30.4652 36.6157 30.5944L7.90289 34.3323C6.91101 34.4615 6.00179 33.7617 5.87267 32.7698L2.62546 7.827C2.49633 6.83512 3.19608 5.92591 4.18797 5.79678L35.1987 1.75962Z"/>
</mask>
<path d="M35.1987 1.75962C36.1122 1.64071 36.9492 2.28481 37.0681 3.1983L38.2102 11.971C38.4322 13.6769 37.7749 15.2938 36.5904 16.3682L38.1782 28.5641C38.3073 29.556 37.6076 30.4652 36.6157 30.5944L7.90289 34.3323C6.91101 34.4615 6.00179 33.7617 5.87267 32.7698L2.62546 7.827C2.49633 6.83512 3.19608 5.92591 4.18797 5.79678L35.1987 1.75962Z" fill="black"/>
<path d="M35.1987 1.75962L35.0429 0.562305L35.0429 0.562308L35.1987 1.75962ZM37.0681 3.1983L35.8708 3.35417L37.0681 3.1983ZM38.2102 11.971L39.4075 11.8151L38.2102 11.971ZM36.5904 16.3682L35.7792 15.4739L35.3116 15.8981L35.3931 16.5241L36.5904 16.3682ZM38.1782 28.5641L39.3755 28.4083L38.1782 28.5641ZM36.6157 30.5944L36.7715 31.7917L36.6157 30.5944ZM7.90289 34.3323L7.74702 33.135L7.90289 34.3323ZM5.87267 32.7698L7.06997 32.614L5.87267 32.7698ZM2.62546 7.827L3.82277 7.67113L2.62546 7.827ZM4.18797 5.79678L4.34384 6.99409L4.18797 5.79678ZM35.1987 1.75962L35.3546 2.95693C35.6069 2.92409 35.8379 3.10196 35.8708 3.35417L37.0681 3.1983L38.2654 3.04243C38.0604 1.46766 36.6176 0.357331 35.0429 0.562305L35.1987 1.75962ZM37.0681 3.1983L35.8708 3.35417L37.0128 12.1268L38.2102 11.971L39.4075 11.8151L38.2654 3.04243L37.0681 3.1983ZM38.2102 11.971L37.0128 12.1268C37.1816 13.4234 36.6838 14.6533 35.7792 15.4739L36.5904 16.3682L37.4017 17.2625C38.8659 15.9342 39.6828 13.9304 39.4075 11.8151L38.2102 11.971ZM36.5904 16.3682L35.3931 16.5241L36.9809 28.72L38.1782 28.5641L39.3755 28.4083L37.7878 16.2123L36.5904 16.3682ZM38.1782 28.5641L36.9809 28.72C37.0239 29.0506 36.7904 29.354 36.4598 29.397L36.6157 30.5944L36.7715 31.7917C38.4247 31.5764 39.5907 30.0614 39.3755 28.4083L38.1782 28.5641ZM36.6157 30.5944L36.4598 29.397L7.74702 33.135L7.90289 34.3323L8.05876 35.5297L36.7715 31.7917L36.6157 30.5944ZM7.90289 34.3323L7.74702 33.135C7.41639 33.1781 7.11302 32.9446 7.06997 32.614L5.87267 32.7698L4.67536 32.9257C4.89057 34.5789 6.40562 35.7449 8.05876 35.5297L7.90289 34.3323ZM5.87267 32.7698L7.06997 32.614L3.82277 7.67113L2.62546 7.827L1.42815 7.98288L4.67536 32.9257L5.87267 32.7698ZM2.62546 7.827L3.82277 7.67113C3.77973 7.3405 4.01321 7.03713 4.34384 6.99409L4.18797 5.79678L4.03209 4.59947C2.37896 4.81468 1.21294 6.32974 1.42815 7.98288L2.62546 7.827ZM4.18797 5.79678L4.34384 6.99409L35.3546 2.95693L35.1987 1.75962L35.0429 0.562308L4.03209 4.59947L4.18797 5.79678Z" fill="black" mask="url(#path-1-outside-1_229_2398)"/>
</g>
<path d="M3.68164 15.9407L35.9868 11.735L38.1778 28.5644C38.3069 29.5563 37.6075 30.465 36.6156 30.5942L7.90236 34.3322C6.91048 34.4614 6.00172 33.762 5.87259 32.7701L3.68164 15.9407Z" fill="#5A9ED5"/>
<rect x="8.15845" y="16.9423" width="27.7073" height="12.1427" transform="rotate(-7.41738 8.15845 16.9423)" fill="#00B0E5"/>
<rect x="20.0693" y="15.6451" width="1.6211" height="11.8914" transform="rotate(-7.41738 20.0693 15.6451)" fill="#0050BC"/>
<rect x="33.0137" y="13.96" width="1.6211" height="16.8377" transform="rotate(-7.41738 33.0137 13.96)" fill="#0050BC"/>
<rect x="30.6543" y="14.2671" width="1.6211" height="16.8377" transform="rotate(-7.41738 30.6543 14.2671)" fill="#0050BC"/>
<path d="M35.2034 30.7783L25.0973 32.094L22.9236 15.397L33.0297 14.0813L35.2034 30.7783ZM25.2312 16.4201C24.9669 16.4545 24.78 16.6966 24.8142 16.9609L25.9222 25.4721C25.9566 25.7366 26.1994 25.9235 26.4639 25.889L32.9086 25.05C33.173 25.0156 33.359 24.7729 33.3246 24.5084L32.2165 15.9972C32.1819 15.733 31.9402 15.5468 31.6759 15.5811L25.2312 16.4201Z" fill="#0A87FC"/>
<path d="M38.178 28.564C38.3071 29.5559 37.6074 30.4651 36.6155 30.5943L36.5342 30.6049L34.4165 14.3388L22.8801 15.8407L24.9977 32.1067L11.6213 33.8482C10.6295 33.9773 9.72024 33.2775 9.59111 32.2856L7.41602 15.578L36.0029 11.8564L38.178 28.564ZM9.85429 17.5365C9.58986 17.5709 9.40291 17.8128 9.43721 18.0772L10.738 28.0691C10.7725 28.3335 11.0152 28.5195 11.2796 28.4851L22.4103 27.036C22.6748 27.0016 22.8617 26.7597 22.8274 26.4952L21.5266 16.5034C21.4921 16.239 21.2494 16.053 20.985 16.0874L9.85429 17.5365Z" fill="#B9EFFC"/>
<path opacity="0.2" d="M29.3312 8.52894C32.3225 8.13952 35.0717 10.3143 35.4716 13.3863C35.8715 16.4582 34.5118 19.1679 30.7795 19.6538C28.5581 19.9429 26.9475 19.2551 25.9233 18.0032C25.2537 19.4756 23.873 20.5529 21.6515 20.8422C19.3511 21.1416 17.7065 20.3929 16.6889 19.0557C16.0476 20.6087 14.6503 21.7536 12.3501 22.0531C8.61787 22.5389 6.6097 20.2677 6.20975 17.1957C5.80981 14.1237 7.91053 11.3176 10.9018 10.9282C12.8782 10.6709 14.7478 11.5337 15.905 13.0343C16.6394 11.2873 18.2267 9.97459 20.2032 9.71728C22.1206 9.46774 23.9372 10.2729 25.1006 11.6914C25.8619 10.0218 27.4135 8.77869 29.3312 8.52894Z" fill="#1941A7"/>
<path d="M17.8558 13.6699C18.2833 16.9538 16.7812 19.8566 12.6838 20.39C8.5865 20.9234 6.39129 18.502 5.96378 15.2181C5.53627 11.9342 7.85181 8.92553 11.1357 8.49801C14.4196 8.0705 17.4282 10.386 17.8558 13.6699Z" fill="#9B0B53"/>
<path d="M28.0669 12.3406C28.4944 15.6244 26.9924 18.5272 22.895 19.0606C18.7977 19.5941 16.6025 17.1726 16.175 13.8887C15.7474 10.6049 18.063 7.59618 21.3469 7.16867C24.6307 6.74115 27.6394 9.05669 28.0669 12.3406Z" fill="#9B0B53"/>
<path d="M38.0882 11.0359C38.5157 14.3198 37.0136 17.2225 32.9163 17.756C28.8189 18.2894 26.6237 15.8679 26.1962 12.584C25.7687 9.30017 28.0842 6.29149 31.3681 5.86398C34.652 5.43646 37.6607 7.752 38.0882 11.0359Z" fill="#9B0B53"/>
<path d="M3.79004 16.7738L36.0952 12.5681L34.9304 3.62091C34.8013 2.62902 33.8925 1.92962 32.9007 2.05875L4.18739 5.79681C3.19551 5.92594 2.49611 6.8347 2.62524 7.82658L3.79004 16.7738Z" fill="#9B0B53"/>
<path d="M16.6204 4.17822L26.8313 2.84891L28.1764 13.1812C28.5435 16.0008 26.5553 18.5842 23.7356 18.9513C20.9159 19.3184 18.3326 17.3301 17.9655 14.5105L16.6204 4.17822Z" fill="#D7FAFF"/>
<path d="M26.8311 2.84888L35.1985 1.75956C36.112 1.64063 36.9489 2.28477 37.0678 3.19827L38.2099 11.9712C38.5702 14.7386 36.6189 17.274 33.8515 17.6343C31.0842 17.9945 28.5488 16.0432 28.1885 13.2759L26.8311 2.84888Z" fill="#E45340"/>
<path d="M6.11011 5.54651L16.6204 4.17822L17.946 14.3608C18.3238 17.2631 16.2773 19.9222 13.375 20.3001C10.4727 20.6779 7.81358 18.6314 7.43574 15.7291L6.11011 5.54651Z" fill="#E45340"/>
<defs>
<filter id="filter0_d_229_2398" x="0.798882" y="0.537964" width="38.6616" height="36.2247" filterUnits="userSpaceOnUse" color-interpolation-filters="sRGB">
<feFlood flood-opacity="0" result="BackgroundImageFix"/>
<feColorMatrix in="SourceAlpha" type="matrix" values="0 0 0 0 0 0 0 0 0 0 0 0 0 0 0 0 0 0 127 0" result="hardAlpha"/>
<feOffset dx="-0.603706" dy="1.20741"/>
<feComposite in2="hardAlpha" operator="out"/>
<feColorMatrix type="matrix" values="0 0 0 0 0 0 0 0 0 0 0 0 0 0 0 0 0 0 1 0"/>
<feBlend mode="normal" in2="BackgroundImageFix" result="effect1_dropShadow_229_2398"/>
<feBlend mode="normal" in="SourceGraphic" in2="effect1_dropShadow_229_2398" result="shape"/>
</filter>
</defs>
</svg>
