<svg width="50" height="44" viewBox="0 0 50 44" fill="none" xmlns="http://www.w3.org/2000/svg">
<path fill-rule="evenodd" clip-rule="evenodd" d="M7.69185 10.9501C7.63447 9.89764 8.34468 8.92769 9.40751 8.69188L35.6683 2.86548C36.6611 2.64521 37.646 3.13552 38.0919 3.99819C42.6678 4.41958 46.6486 7.73597 47.6976 12.4638C48.9969 18.3201 45.3027 24.1209 39.4464 25.4202C38.7669 25.571 38.087 25.6546 37.414 25.675C36.6355 26.9757 35.6482 28.1506 34.4857 29.1457L39.2227 31.8982C41.4434 33.1885 40.9241 36.5338 38.4167 37.0901L21.7407 40.7899C19.2333 41.3462 17.348 38.5345 18.8146 36.4261L21.8427 32.0729C20.3106 31.677 18.8636 31.0261 17.5605 30.1587C17.0722 30.3444 16.5651 30.4968 16.0414 30.613C10.1851 31.9123 4.38428 28.2182 3.08496 22.3618C2.08241 17.8431 4.05225 13.3608 7.69185 10.9501ZM9.44158 11.7389L9.27079 10.9691C9.19581 10.6312 9.40897 10.2965 9.74689 10.2215L36.0077 4.39511C36.3456 4.32014 36.6803 4.5333 36.7553 4.87122L36.8996 5.52181C41.2422 5.42646 45.1912 8.40097 46.1679 12.8031C47.2798 17.8147 44.1185 22.7787 39.107 23.8906C38.2289 24.0854 37.3522 24.149 36.4975 24.0945C35.5575 25.9507 34.1604 27.5647 32.418 28.7607L32.6716 29.9038L38.4356 33.2529C39.4225 33.8264 39.1917 35.3132 38.0773 35.5604L21.4013 39.2603C20.287 39.5075 19.449 38.2579 20.1008 37.3208L23.6292 32.2484L23.304 30.7827C21.2693 30.444 19.3643 29.6055 17.7522 28.3711C17.1124 28.6814 16.4266 28.9226 15.702 29.0834C10.6905 30.1953 5.72649 27.034 4.61459 22.0225C3.67894 17.8053 5.76919 13.6217 9.44158 11.7389ZM9.59938 19.6839C9.56795 20.0807 9.5942 20.4889 9.68491 20.8977C10.0081 22.3546 11.0691 23.4571 12.3877 23.8995C12.955 24.0899 13.5699 24.1581 14.1943 24.0798C13.9465 23.5871 13.7293 23.0735 13.5459 22.5409C13.4514 22.2665 13.3658 21.9871 13.2896 21.7029C13.2419 21.5249 13.1978 21.3451 13.1575 21.1635C13.0837 20.831 13.024 20.4987 12.9778 20.1671L12.0015 20.3837C11.874 20.412 11.7469 20.3993 11.634 20.3542C11.4479 20.28 11.3006 20.118 11.2539 19.9076L10.6623 17.241C10.0545 17.9067 9.67219 18.7649 9.59938 19.6839ZM37.7844 17.2554C37.8147 17.5651 37.8333 17.8738 37.8405 18.181C37.8457 18.4049 37.8448 18.6279 37.838 18.85C37.8861 18.8411 37.9342 18.8313 37.9824 18.8206C38.5087 18.7039 38.9887 18.4908 39.4081 18.2041C40.7509 17.2862 41.4719 15.6133 41.0981 13.9282C40.9126 13.0923 40.4843 12.373 39.9037 11.8282C39.3926 11.3484 38.7635 11.0039 38.0782 10.834L38.7385 13.8097C38.7851 14.0201 38.7201 14.2292 38.5829 14.3752C38.4997 14.4637 38.3899 14.529 38.2623 14.5573L37.2861 14.7739C37.3845 15.0939 37.4709 15.4203 37.5446 15.7528C37.5849 15.9344 37.6211 16.116 37.6531 16.2974C37.7095 16.6174 37.7532 16.9369 37.7844 17.2554ZM39.169 15.8762C39.1886 15.9809 39.207 16.0855 39.2242 16.1901C39.3286 16.0282 39.4146 15.8545 39.4801 15.6723C39.3832 15.7484 39.2792 15.8167 39.169 15.8762Z" fill="black"/>
<path fill-rule="evenodd" clip-rule="evenodd" d="M15.7008 29.0798C20.7123 27.9679 23.8736 23.0039 22.7617 17.9924C21.6498 12.9808 16.6858 9.81955 11.6743 10.9314C6.66275 12.0433 3.50146 17.0074 4.61336 22.0189C5.72525 27.0304 10.6893 30.1917 15.7008 29.0798ZM14.5761 24.0099C16.7875 23.5192 18.1825 21.3288 17.6919 19.1174C17.2012 16.906 15.0108 15.511 12.7994 16.0017C10.588 16.4923 9.19304 18.6827 9.68368 20.8941C10.1743 23.1055 12.3647 24.5005 14.5761 24.0099Z" fill="#CE4F0A"/>
<path fill-rule="evenodd" clip-rule="evenodd" d="M39.1066 23.8872C44.1181 22.7753 47.2794 17.8113 46.1675 12.7997C45.0556 7.7882 40.0916 4.62692 35.08 5.73881C30.0685 6.85071 26.9072 11.8147 28.0191 16.8263C29.131 21.8378 34.095 24.9991 39.1066 23.8872ZM37.9819 18.8172C40.1933 18.3266 41.5882 16.1362 41.0976 13.9248C40.607 11.7134 38.4165 10.3184 36.2052 10.8091C33.9938 11.2997 32.5988 13.4901 33.0894 15.7015C33.5801 17.9129 35.7705 19.3079 37.9819 18.8172Z" fill="#CE4F0A"/>
<path fill-rule="evenodd" clip-rule="evenodd" d="M15.7015 29.0803C20.7131 27.9684 23.8743 23.0044 22.7624 17.9928C21.6506 12.9813 16.6865 9.82004 11.675 10.9319C6.66348 12.0438 3.5022 17.0078 4.61409 22.0194C5.72598 27.0309 10.69 30.1922 15.7015 29.0803ZM14.5769 24.0103C16.7883 23.5197 18.1832 21.3293 17.6926 19.1179C17.2019 16.9065 15.0115 15.5115 12.8001 16.0022C10.5887 16.4928 9.19377 18.6832 9.68441 20.8946C10.175 23.106 12.3655 24.501 14.5769 24.0103Z" fill="#CE4F0A"/>
<path fill-rule="evenodd" clip-rule="evenodd" d="M39.1073 23.8878C44.1188 22.7759 47.2801 17.8119 46.1682 12.8003C45.0563 7.78881 40.0923 4.62753 35.0808 5.73943C30.0692 6.85132 26.908 11.8153 28.0199 16.8269C29.1317 21.8384 34.0958 24.9997 39.1073 23.8878ZM37.9826 18.8178C40.194 18.3272 41.589 16.1368 41.0983 13.9254C40.6077 11.714 38.4173 10.319 36.2059 10.8097C33.9945 11.3003 32.5995 13.4907 33.0902 15.7021C33.5808 17.9135 35.7712 19.3085 37.9826 18.8178Z" fill="#CE4F0A"/>
<path fill-rule="evenodd" clip-rule="evenodd" d="M9.74808 10.2217C9.41017 10.2966 9.19701 10.6314 9.27198 10.9693L11.2551 19.9078C11.3301 20.2457 11.6648 20.4589 12.0027 20.3839L12.979 20.1673C13.0251 20.4988 13.0849 20.8311 13.1587 21.1636C14.6528 27.8979 21.3233 32.146 28.0576 30.6518C34.7919 29.1577 39.04 22.4872 37.5458 15.7529C37.4721 15.4204 37.3857 15.094 37.2873 14.7741L38.2635 14.5575C38.6015 14.4825 38.8146 14.1478 38.7396 13.8099L36.7565 4.87137C36.6815 4.53345 36.3468 4.3203 36.0089 4.39527L9.74808 10.2217Z" fill="#98221C"/>
<path fill-rule="evenodd" clip-rule="evenodd" d="M31.4906 24.5711L22.3767 26.5932L23.6305 32.2446L20.1022 37.317C19.4503 38.2541 20.2883 39.5037 21.4027 39.2565L38.0787 35.5566C39.1931 35.3094 39.4239 33.8226 38.4369 33.2491L32.6729 29.9L31.4906 24.5711Z" fill="#FCBC21"/>
<mask id="mask0_229_2445" style="mask-type:alpha" maskUnits="userSpaceOnUse" x="19" y="24" width="21" height="16">
<path fill-rule="evenodd" clip-rule="evenodd" d="M31.4911 24.5702L22.3772 26.5923L23.631 32.2438L20.1027 37.3161C19.4508 38.2532 20.2888 39.5029 21.4032 39.2556L38.0791 35.5558C39.1935 35.3085 39.4244 33.8218 38.4374 33.2483L32.6734 29.8992L31.4911 24.5702Z" fill="#EB721E"/>
</mask>
<g mask="url(#mask0_229_2445)">
<path d="M37.3733 25.5865C38.1514 29.7086 34.2894 33.8983 28.7474 34.9444C23.2054 35.9905 18.0819 33.4968 17.3038 29.3746C16.5258 25.2524 20.3877 21.0628 25.9298 20.0167C31.4718 18.9706 36.5953 21.4643 37.3733 25.5865Z" fill="#98221C"/>
</g>
<path fill-rule="evenodd" clip-rule="evenodd" d="M15.702 29.081C20.7135 27.9691 23.8748 23.0051 22.7629 17.9936C21.651 12.9821 16.687 9.82077 11.6755 10.9327C6.66397 12.0446 3.50269 17.0086 4.61458 22.0201C5.72647 27.0316 10.6905 30.1929 15.702 29.081ZM14.5774 24.0111C16.7888 23.5204 18.1837 21.33 17.6931 19.1186C17.2024 16.9072 15.012 15.5123 12.8006 16.0029C10.5892 16.4935 9.19426 18.684 9.6849 20.8954C10.1755 23.1068 12.366 24.5017 14.5774 24.0111Z" fill="#ED7527"/>
<path fill-rule="evenodd" clip-rule="evenodd" d="M39.108 23.8883C44.1196 22.7764 47.2808 17.8124 46.1689 12.8008C45.057 7.7893 40.093 4.62802 35.0815 5.73991C30.07 6.85181 26.9087 11.8158 28.0206 16.8274C29.1325 21.8389 34.0965 25.0002 39.108 23.8883ZM37.9834 18.8183C40.1948 18.3277 41.5897 16.1373 41.0991 13.9259C40.6084 11.7145 38.418 10.3195 36.2066 10.8101C33.9952 11.3008 32.6003 13.4912 33.0909 15.7026C33.5815 17.914 35.772 19.309 37.9834 18.8183Z" fill="#ED7527"/>
<path fill-rule="evenodd" clip-rule="evenodd" d="M9.74857 10.2223C9.41066 10.2973 9.1975 10.632 9.27247 10.9699L11.2556 19.9084C11.3306 20.2463 11.6653 20.4595 12.0032 20.3845L12.9795 20.1679C13.0256 20.4994 13.0854 20.8318 13.1592 21.1642C14.6533 27.8985 21.3238 32.1466 28.0581 30.6524C34.7924 29.1583 39.0404 22.4878 37.5463 15.7535C37.4726 15.4211 37.3862 15.0946 37.2878 14.7747L38.264 14.5581C38.6019 14.4831 38.8151 14.1484 38.7401 13.8105L36.757 4.87198C36.682 4.53407 36.3473 4.32091 36.0094 4.39588L9.74857 10.2223Z" fill="#ED7527"/>
<path fill-rule="evenodd" clip-rule="evenodd" d="M31.4911 24.5718L22.3772 26.5939L23.631 32.2454L20.1027 37.3177C19.4508 38.2548 20.2888 39.5045 21.4032 39.2572L38.0791 35.5574C39.1935 35.3101 39.4244 33.8233 38.4374 33.2499L32.6734 29.9008L31.4911 24.5718Z" fill="#FCBC21"/>
<mask id="mask1_229_2445" style="mask-type:alpha" maskUnits="userSpaceOnUse" x="19" y="24" width="21" height="16">
<path fill-rule="evenodd" clip-rule="evenodd" d="M31.4916 24.5708L22.3776 26.5929L23.6315 32.2444L20.1031 37.3168C19.4513 38.2538 20.2893 39.5035 21.4036 39.2562L38.0796 35.5564C39.194 35.3091 39.4248 33.8224 38.4379 33.2489L32.6739 29.8998L31.4916 24.5708Z" fill="#EB721E"/>
</mask>
<g mask="url(#mask1_229_2445)">
<path d="M37.3741 25.5871C38.1521 29.7093 34.2902 33.8989 28.7481 34.945C23.2061 35.9911 18.0826 33.4974 17.3046 29.3752C16.5265 25.2531 20.3885 21.0634 25.9305 20.0173C31.4725 18.9712 36.596 21.4649 37.3741 25.5871Z" fill="#ED7527"/>
</g>
<path d="M12.9042 20.0176C12.9503 20.3491 13.0849 20.8319 13.1587 21.1644C14.6528 27.8987 21.0486 32.0263 27.549 30.5841C31.3596 29.7387 37.5417 24.8075 36.0476 18.0733C35.9738 17.7408 35.9879 17.8044 35.9031 17.422L12.9042 20.0176Z" fill="#FCBC21"/>
<path d="M9.27198 10.9693C9.19701 10.6314 9.41017 10.2966 9.74808 10.2217L34.1667 4.80399C34.5046 4.72902 34.8393 4.94218 34.9143 5.2801L36.8974 14.2186C36.9724 14.5565 36.7592 14.8912 36.4213 14.9662L12.0027 20.3839C11.6648 20.4589 11.3301 20.2457 11.2551 19.9078L9.27198 10.9693Z" fill="#FCBC21"/>
</svg>
