<svg width="38" height="38" viewBox="0 0 38 38" fill="none" xmlns="http://www.w3.org/2000/svg">
<g filter="url(#filter0_di_229_4590)">
<rect x="0.806641" y="5.5282" width="31.9252" height="30.5208" rx="4" transform="rotate(-8.63769 0.806641 5.5282)" fill="#FFB820"/>
<rect x="0.237219" y="5.10896" width="32.9252" height="31.5208" rx="4.5" transform="rotate(-8.63769 0.237219 5.10896)" stroke="black"/>
</g>
<path d="M20.7457 13.0592C20.7457 13.0592 20.0882 8.73034 24.3736 8.07935C28.659 7.42835 29.3167 11.7572 29.3167 11.7572" stroke="#9B2424" stroke-width="1.3" stroke-linecap="round"/>
<path d="M6.61951 15.2051C6.61951 15.2051 5.96194 10.8762 10.2474 10.2252C14.5328 9.57422 15.1904 13.9031 15.1904 13.9031" stroke="#9B2424" stroke-width="1.3" stroke-linecap="round"/>
<path d="M12.8735 18.5219L24.7058 16.7244L25.0704 19.124C25.5667 22.3914 23.3203 25.4426 20.0529 25.9389C16.7855 26.4353 13.7344 24.1889 13.2381 20.9215L12.8735 18.5219Z" fill="#9B2424"/>
<defs>
<filter id="filter0_di_229_4590" x="0.361328" y="0.288208" width="37.0376" height="37.4599" filterUnits="userSpaceOnUse" color-interpolation-filters="sRGB">
<feFlood flood-opacity="0" result="BackgroundImageFix"/>
<feColorMatrix in="SourceAlpha" type="matrix" values="0 0 0 0 0 0 0 0 0 0 0 0 0 0 0 0 0 0 127 0" result="hardAlpha"/>
<feOffset dy="1.6"/>
<feComposite in2="hardAlpha" operator="out"/>
<feColorMatrix type="matrix" values="0 0 0 0 0 0 0 0 0 0 0 0 0 0 0 0 0 0 1 0"/>
<feBlend mode="normal" in2="BackgroundImageFix" result="effect1_dropShadow_229_4590"/>
<feBlend mode="normal" in="SourceGraphic" in2="effect1_dropShadow_229_4590" result="shape"/>
<feColorMatrix in="SourceAlpha" type="matrix" values="0 0 0 0 0 0 0 0 0 0 0 0 0 0 0 0 0 0 127 0" result="hardAlpha"/>
<feOffset dy="-3"/>
<feComposite in2="hardAlpha" operator="arithmetic" k2="-1" k3="1"/>
<feColorMatrix type="matrix" values="0 0 0 0 0.607843 0 0 0 0 0.141176 0 0 0 0 0.141176 0 0 0 1 0"/>
<feBlend mode="normal" in2="shape" result="effect2_innerShadow_229_4590"/>
</filter>
</defs>
</svg>
