<svg width="34" height="36" viewBox="0 0 34 36" fill="none" xmlns="http://www.w3.org/2000/svg">
<g filter="url(#filter0_d_31_7170)">
<rect x="0.5" y="0.5" width="33" height="33" rx="16.5" stroke="black" shape-rendering="crispEdges"/>
<path d="M17.0364 1H16.9636C8.14712 1 1 8.14713 1 16.9636V17.0364C1 25.8529 8.14712 33 16.9636 33H17.0364C25.8529 33 33 25.8529 33 17.0364V16.9636C33 8.14713 25.8529 1 17.0364 1Z" fill="#00B0F2"/>
<path d="M7.06064 16.4545C7.10548 16.432 7.15035 16.4107 7.19407 16.3905C7.95419 16.0385 8.7244 15.7089 9.49348 15.3793C9.53496 15.3793 9.60446 15.3311 9.64369 15.3154C9.70311 15.2896 9.76254 15.2649 9.82196 15.2392L10.1639 15.0923C10.3926 14.9948 10.6202 14.8972 10.8489 14.7997C11.3052 14.6046 11.7615 14.4095 12.2178 14.2133C13.1304 13.8232 14.0441 13.4319 14.9567 13.0418C15.8693 12.6516 16.783 12.2604 17.6956 11.8702C18.6081 11.4801 19.5218 11.0888 20.4344 10.6986C21.347 10.3085 22.2608 9.91723 23.1733 9.52708C23.3763 9.43963 23.596 9.30958 23.8135 9.27147C23.9962 9.23895 24.1745 9.17617 24.3583 9.14142C24.707 9.07527 25.0916 9.04836 25.4256 9.19299C25.5411 9.24344 25.6476 9.31407 25.7362 9.40264C26.16 9.82193 26.1006 10.5103 26.0109 11.1C25.3864 15.21 24.7619 19.3211 24.1364 23.4312C24.0512 23.9951 23.9346 24.6139 23.4895 24.9704C23.1128 25.272 22.5769 25.3057 22.1116 25.1779C21.6464 25.0489 21.236 24.7787 20.8336 24.513C19.1642 23.4076 17.4938 22.3022 15.8244 21.1968C15.4275 20.9344 14.9858 20.5914 14.9903 20.1149C14.9926 19.8279 15.1641 19.5723 15.339 19.3447C16.7897 17.4522 18.8828 16.1518 20.44 14.3468C20.6598 14.0923 20.8324 13.6326 20.5309 13.4857C20.3515 13.3983 20.1452 13.5171 19.9815 13.6304C17.9231 15.0598 15.8659 16.4903 13.8075 17.9198C13.136 18.3861 12.4319 18.866 11.6225 18.9803C10.8982 19.0835 10.1695 18.8817 9.46882 18.6754C8.88136 18.5027 8.29499 18.3256 7.71089 18.1429C7.40034 18.0464 7.0797 17.9422 6.83978 17.7236C6.59986 17.5049 6.46199 17.1372 6.60661 16.8457C6.69742 16.663 6.87344 16.5475 7.05842 16.4533L7.06064 16.4545Z" fill="#FEFFFC"/>
</g>
<defs>
<filter id="filter0_d_31_7170" x="0" y="0" width="34" height="36" filterUnits="userSpaceOnUse" color-interpolation-filters="sRGB">
<feFlood flood-opacity="0" result="BackgroundImageFix"/>
<feColorMatrix in="SourceAlpha" type="matrix" values="0 0 0 0 0 0 0 0 0 0 0 0 0 0 0 0 0 0 127 0" result="hardAlpha"/>
<feOffset dy="2"/>
<feComposite in2="hardAlpha" operator="out"/>
<feColorMatrix type="matrix" values="0 0 0 0 0 0 0 0 0 0 0 0 0 0 0 0 0 0 0.5 0"/>
<feBlend mode="normal" in2="BackgroundImageFix" result="effect1_dropShadow_31_7170"/>
<feBlend mode="normal" in="SourceGraphic" in2="effect1_dropShadow_31_7170" result="shape"/>
</filter>
</defs>
</svg>
