<svg width="34" height="36" viewBox="0 0 34 36" fill="none" xmlns="http://www.w3.org/2000/svg">
<g filter="url(#filter0_d_175_5694)">
<rect x="0.5" y="0.5" width="33" height="33" rx="16.5" stroke="black" shape-rendering="crispEdges"/>
<path d="M32.9978 17.0006C32.9978 25.0816 27.0078 31.7623 19.2265 32.8464C18.4989 32.9473 17.7545 33 16.9989 33C16.1267 33 15.2702 32.9305 14.4361 32.796C6.81838 31.5695 1 24.9638 1 17.0006C1 8.16393 8.16368 1 17 1C25.8363 1 33 8.16393 33 17.0006H32.9978Z" fill="#1C1C1B"/>
<path d="M7.48859 8.05615L14.8675 17.922L7.44263 25.9436H9.11416L15.6153 18.9209L20.8675 25.9436H26.5547L18.761 15.5228L25.6725 8.05615H24.0009L18.0144 14.5239L13.1769 8.05615H7.4897H7.48859ZM9.94599 9.28714H12.5581L24.0951 24.7126H21.483L9.94599 9.28714Z" fill="white"/>
</g>
<defs>
<filter id="filter0_d_175_5694" x="0" y="0" width="34" height="36" filterUnits="userSpaceOnUse" color-interpolation-filters="sRGB">
<feFlood flood-opacity="0" result="BackgroundImageFix"/>
<feColorMatrix in="SourceAlpha" type="matrix" values="0 0 0 0 0 0 0 0 0 0 0 0 0 0 0 0 0 0 127 0" result="hardAlpha"/>
<feOffset dy="2"/>
<feComposite in2="hardAlpha" operator="out"/>
<feColorMatrix type="matrix" values="0 0 0 0 0 0 0 0 0 0 0 0 0 0 0 0 0 0 0.5 0"/>
<feBlend mode="normal" in2="BackgroundImageFix" result="effect1_dropShadow_175_5694"/>
<feBlend mode="normal" in="SourceGraphic" in2="effect1_dropShadow_175_5694" result="shape"/>
</filter>
</defs>
</svg>
