<svg width="20" height="20" viewBox="0 0 20 20" fill="none" xmlns="http://www.w3.org/2000/svg">
<g clip-path="url(#clip0_77_8510)">
<g filter="url(#filter0_d_77_8510)">
<path d="M18.0415 17.1877C17.9866 17.2827 17.9077 17.3616 17.8127 17.4165C17.7176 17.4713 17.6098 17.5002 17.5001 17.5002H2.50009C2.39044 17.5001 2.28274 17.4711 2.18782 17.4162C2.09289 17.3613 2.01409 17.2824 1.95931 17.1874C1.90453 17.0924 1.8757 16.9847 1.87573 16.875C1.87576 16.7654 1.90464 16.6576 1.95947 16.5627C3.14931 14.5056 4.9829 13.0306 7.12275 12.3314C6.06428 11.7013 5.24192 10.7412 4.78196 9.59845C4.32199 8.45573 4.24985 7.19361 4.57661 6.00592C4.90337 4.81823 5.61097 3.77064 6.59074 3.02402C7.57051 2.2774 8.76827 1.87305 10.0001 1.87305C11.2319 1.87305 12.4297 2.2774 13.4094 3.02402C14.3892 3.77064 15.0968 4.81823 15.4236 6.00592C15.7503 7.19361 15.6782 8.45573 15.2182 9.59845C14.7583 10.7412 13.9359 11.7013 12.8774 12.3314C15.0173 13.0306 16.8509 14.5056 18.0407 16.5627C18.0957 16.6576 18.1247 16.7654 18.1248 16.8751C18.125 16.9848 18.0962 17.0926 18.0415 17.1877Z" fill="white"/>
<path d="M9.99976 1.37305C11.341 1.37305 12.6458 1.81303 13.7126 2.62598C14.7795 3.43893 15.5502 4.57984 15.906 5.87305C16.2618 7.16627 16.1832 8.54089 15.6824 9.78516C15.3032 10.7272 14.6964 11.5538 13.9246 12.1982C15.7982 13.0242 17.391 14.4413 18.4734 16.3125C18.5722 16.4832 18.6244 16.6768 18.6248 16.874C18.6249 17.0221 18.5959 17.1687 18.5398 17.3047L18.4744 17.4375C18.3756 17.6086 18.2333 17.7509 18.0623 17.8496C17.8913 17.9482 17.6972 18 17.4998 18H2.49976C2.30237 17.9998 2.10812 17.9475 1.93726 17.8486C1.76662 17.7499 1.62466 17.6083 1.52612 17.4375C1.42754 17.2665 1.3757 17.0723 1.37573 16.875C1.37578 16.6776 1.42744 16.4834 1.52612 16.3125H1.5271C2.60913 14.4419 4.20111 13.0253 6.07397 12.1992C5.30239 11.5548 4.69721 10.727 4.31812 9.78516C3.81726 8.54086 3.73868 7.16631 4.09448 5.87305C4.45032 4.57987 5.22104 3.43891 6.28784 2.62598C7.35456 1.81319 8.65867 1.37312 9.99976 1.37305Z" stroke="black"/>
</g>
</g>
<defs>
<filter id="filter0_d_77_8510" x="0.875732" y="0.873047" width="18.249" height="18.627" filterUnits="userSpaceOnUse" color-interpolation-filters="sRGB">
<feFlood flood-opacity="0" result="BackgroundImageFix"/>
<feColorMatrix in="SourceAlpha" type="matrix" values="0 0 0 0 0 0 0 0 0 0 0 0 0 0 0 0 0 0 127 0" result="hardAlpha"/>
<feOffset dy="1"/>
<feComposite in2="hardAlpha" operator="out"/>
<feColorMatrix type="matrix" values="0 0 0 0 0 0 0 0 0 0 0 0 0 0 0 0 0 0 1 0"/>
<feBlend mode="normal" in2="BackgroundImageFix" result="effect1_dropShadow_77_8510"/>
<feBlend mode="normal" in="SourceGraphic" in2="effect1_dropShadow_77_8510" result="shape"/>
</filter>
<clipPath id="clip0_77_8510">
<rect width="20" height="20" fill="white"/>
</clipPath>
</defs>
</svg>
