<svg width="32" height="32" viewBox="0 0 32 32" fill="none" xmlns="http://www.w3.org/2000/svg">
<g filter="url(#filter0_d_48_7530)">
<path d="M27 8H7C6.73478 8 6.48043 7.89464 6.29289 7.70711C6.10536 7.51957 6 7.26522 6 7C6 6.73478 6.10536 6.48043 6.29289 6.29289C6.48043 6.10536 6.73478 6 7 6H24C24.2652 6 24.5196 5.89464 24.7071 5.70711C24.8946 5.51957 25 5.26522 25 5C25 4.73478 24.8946 4.48043 24.7071 4.29289C24.5196 4.10536 24.2652 4 24 4H7C6.20435 4 5.44129 4.31607 4.87868 4.87868C4.31607 5.44129 4 6.20435 4 7V23C4 23.7956 4.31607 24.5587 4.87868 25.1213C5.44129 25.6839 6.20435 26 7 26H27C27.5304 26 28.0391 25.7893 28.4142 25.4142C28.7893 25.0391 29 24.5304 29 24V10C29 9.46957 28.7893 8.96086 28.4142 8.58579C28.0391 8.21071 27.5304 8 27 8ZM22.5 18C22.2033 18 21.9133 17.912 21.6666 17.7472C21.42 17.5824 21.2277 17.3481 21.1142 17.074C21.0007 16.7999 20.9709 16.4983 21.0288 16.2074C21.0867 15.9164 21.2296 15.6491 21.4393 15.4393C21.6491 15.2296 21.9164 15.0867 22.2074 15.0288C22.4983 14.9709 22.7999 15.0006 23.074 15.1142C23.3481 15.2277 23.5824 15.42 23.7472 15.6666C23.912 15.9133 24 16.2033 24 16.5C24 16.8978 23.842 17.2794 23.5607 17.5607C23.2794 17.842 22.8978 18 22.5 18Z" fill="white"/>
<path d="M24 3.33301C24.442 3.33301 24.8662 3.50873 25.1787 3.82129C25.4913 4.13385 25.667 4.55797 25.667 5C25.667 5.44203 25.4913 5.86615 25.1787 6.17871C24.8662 6.49127 24.442 6.66699 24 6.66699H7C6.91159 6.66699 6.82716 6.70214 6.76465 6.76465C6.70214 6.82716 6.66699 6.91159 6.66699 7C6.66699 7.08841 6.70214 7.17284 6.76465 7.23535C6.82716 7.29786 6.91159 7.33301 7 7.33301H27C27.7072 7.33301 28.3856 7.61416 28.8857 8.11426C29.3858 8.61435 29.667 9.29276 29.667 10V24C29.667 24.7072 29.3858 25.3856 28.8857 25.8857C28.3856 26.3858 27.7072 26.667 27 26.667H7C6.02754 26.667 5.09486 26.2804 4.40723 25.5928C3.71959 24.9051 3.33301 23.9725 3.33301 23V7L3.33789 6.81836C3.38281 5.91203 3.76253 5.05192 4.40723 4.40723C5.09486 3.71959 6.02754 3.33301 7 3.33301H24ZM22.3379 15.6826C22.1762 15.7148 22.0277 15.7946 21.9111 15.9111C21.7946 16.0277 21.7148 16.1762 21.6826 16.3379C21.6506 16.4994 21.6675 16.6672 21.7305 16.8193C21.7936 16.9714 21.9002 17.1019 22.0371 17.1934C22.1741 17.2848 22.3353 17.333 22.5 17.333C22.721 17.333 22.9326 17.2451 23.0889 17.0889C23.2451 16.9326 23.333 16.721 23.333 16.5C23.333 16.3353 23.2848 16.1741 23.1934 16.0371C23.1019 15.9002 22.9714 15.7936 22.8193 15.7305C22.6672 15.6675 22.4994 15.6506 22.3379 15.6826Z" stroke="black" stroke-width="1.33333"/>
</g>
<defs>
<filter id="filter0_d_48_7530" x="2.66663" y="2.66675" width="27.6667" height="25.9998" filterUnits="userSpaceOnUse" color-interpolation-filters="sRGB">
<feFlood flood-opacity="0" result="BackgroundImageFix"/>
<feColorMatrix in="SourceAlpha" type="matrix" values="0 0 0 0 0 0 0 0 0 0 0 0 0 0 0 0 0 0 127 0" result="hardAlpha"/>
<feOffset dy="1.33333"/>
<feComposite in2="hardAlpha" operator="out"/>
<feColorMatrix type="matrix" values="0 0 0 0 0 0 0 0 0 0 0 0 0 0 0 0 0 0 1 0"/>
<feBlend mode="normal" in2="BackgroundImageFix" result="effect1_dropShadow_48_7530"/>
<feBlend mode="normal" in="SourceGraphic" in2="effect1_dropShadow_48_7530" result="shape"/>
</filter>
</defs>
</svg>
