<svg width="46" height="42" viewBox="0 0 46 42" fill="none" xmlns="http://www.w3.org/2000/svg">
<path d="M3.03247 8.55805L33.9934 2.5315C34.1447 2.50204 34.5525 2.64922 34.6703 3.25434L35.6225 8.14594L4.1449 14.2731C3.69505 14.3606 3.22116 14.2533 2.78057 13.9596L2.77962 13.9598C2.6972 13.9047 2.61674 13.8428 2.53772 13.7751C2.0332 13.343 1.62194 12.6632 1.45969 11.83C1.12341 10.1023 1.99086 8.7608 3.03247 8.55805Z" fill="#C47743" stroke="black" stroke-width="1.33431"/>
<path d="M1.84303 13.7995C2.51833 14.148 3.31199 14.2826 4.11625 14.126L38.1599 7.49942C38.4451 7.4439 38.7214 7.62946 38.777 7.91456L43.7613 33.5209C43.8166 33.8059 43.63 34.0817 43.345 34.1372L9.32909 40.7584C8.13841 40.9901 6.98457 40.2132 6.75267 39.0224L1.84303 13.7995Z" fill="#E28947" stroke="black" stroke-width="1.33431"/>
<path d="M7.03452 16.9377L5.81105 17.1758C5.57229 17.2223 5.34107 17.0665 5.2946 16.8277C5.24812 16.5889 5.40399 16.3577 5.64275 16.3112L6.86623 16.0731C7.10499 16.0266 7.3362 16.1825 7.38268 16.4212C7.42915 16.66 7.27328 16.8912 7.03452 16.9377Z" fill="#975E37"/>
<path d="M38.8096 32.6943L37.7459 32.9014C37.5072 32.9479 37.2759 32.792 37.2295 32.5532C37.183 32.3145 37.3389 32.0832 37.5776 32.0368L38.6413 31.8297C38.88 31.7833 39.1113 31.9391 39.1577 32.1779C39.2042 32.4167 39.0483 32.6479 38.8096 32.6943ZM36.0437 33.2327L34.9801 33.4398C34.7413 33.4862 34.5101 33.3304 34.4636 33.0916C34.4171 32.8528 34.573 32.6216 34.8118 32.5751L35.8754 32.3681C36.1142 32.3216 36.3454 32.4775 36.3919 32.7163C36.4384 32.955 36.2825 33.1862 36.0437 33.2327ZM33.2779 33.7711L32.2142 33.9781C31.9755 34.0246 31.7442 33.8687 31.6978 33.63C31.6513 33.3912 31.8072 33.16 32.0459 33.1135L33.1096 32.9065C33.3483 32.86 33.5796 33.0159 33.626 33.2546C33.6725 33.4934 33.5166 33.7246 33.2779 33.7711ZM30.5123 34.3094L29.4486 34.5165C29.2099 34.5629 28.9786 34.4071 28.9322 34.1683C28.8857 33.9295 29.0416 33.6983 29.2803 33.6518L30.344 33.4448C30.5827 33.3983 30.814 33.5542 30.8604 33.793C30.9069 34.0317 30.751 34.2629 30.5123 34.3094ZM27.7464 34.8478L26.6828 35.0548C26.444 35.1013 26.2128 34.9454 26.1663 34.7067C26.1198 34.4679 26.2757 34.2367 26.5145 34.1902L27.5781 33.9832C27.8169 33.9367 28.0481 34.0926 28.0946 34.3313C28.1411 34.5701 27.9852 34.8013 27.7464 34.8478ZM24.9806 35.3862L23.9169 35.5932C23.6782 35.6397 23.4469 35.4838 23.4005 35.245C23.354 35.0063 23.5099 34.7751 23.7486 34.7286L24.8123 34.5215C25.051 34.4751 25.2823 34.6309 25.3287 34.8697C25.3752 35.1085 25.2193 35.3397 24.9806 35.3862ZM22.2147 35.9245L21.1511 36.1316C20.9123 36.178 20.6811 36.0222 20.6346 35.7834C20.5881 35.5447 20.744 35.3134 20.9828 35.267L22.0464 35.0599C22.2852 35.0134 22.5164 35.1693 22.5629 35.4081C22.6094 35.6468 22.4535 35.8781 22.2147 35.9245ZM19.4489 36.4629L18.3852 36.6699C18.1465 36.7164 17.9152 36.5606 17.8688 36.3218C17.8223 36.083 17.9782 35.8518 18.2169 35.8053L19.2806 35.5983C19.5194 35.5518 19.7506 35.7077 19.797 35.9465C19.8435 36.1852 19.6876 36.4164 19.4489 36.4629ZM16.683 37.0013L15.6194 37.2083C15.3806 37.2548 15.1494 37.0989 15.1029 36.8602C15.0565 36.6214 15.2123 36.3902 15.4511 36.3437L16.5147 36.1367C16.7535 36.0902 16.9847 36.2461 17.0312 36.4848C17.0777 36.7236 16.9218 36.9548 16.683 37.0013ZM13.9174 37.5396L12.8535 37.7467C12.6148 37.7932 12.3836 37.6373 12.3371 37.3985C12.2906 37.1598 12.4465 36.9286 12.6852 36.8821L13.7491 36.675C13.9879 36.6285 14.2191 36.7844 14.2656 37.0232C14.3121 37.2619 14.1562 37.4931 13.9174 37.5396ZM40.3043 31.9974C40.2198 32.0139 40.1299 32.0058 40.0453 31.9691C39.822 31.8723 39.7199 31.6131 39.8165 31.3899C39.8548 31.3018 39.8652 31.2049 39.8467 31.1099L39.745 30.5872C39.6985 30.3484 39.8544 30.1172 40.0931 30.0707C40.3319 30.0242 40.5631 30.1801 40.6096 30.4189L40.7113 30.9416C40.764 31.2122 40.7338 31.4885 40.6245 31.7407C40.5645 31.879 40.4418 31.9706 40.3043 31.9974ZM39.93 29.2329C39.6913 29.2794 39.4601 29.1235 39.4136 28.8847L39.2065 27.8211C39.1601 27.5823 39.3159 27.3511 39.5547 27.3046C39.7935 27.2582 40.0247 27.414 40.0712 27.6528L40.2782 28.7164C40.3247 28.9552 40.1688 29.1864 39.93 29.2329ZM38.8533 23.7014C38.6146 23.7479 38.3834 23.592 38.3369 23.3533L38.1298 22.2896C38.0834 22.0509 38.2392 21.8197 38.478 21.7732C38.7168 21.7267 38.948 21.8826 38.9945 22.1213L39.2015 23.185C39.248 23.4238 39.0921 23.655 38.8533 23.7014ZM38.315 20.9356C38.0762 20.9821 37.845 20.8262 37.7985 20.5874L37.5915 19.5238C37.545 19.285 37.7009 19.0538 37.9396 19.0073C38.1784 18.9609 38.4096 19.1167 38.4561 19.3555L38.6631 20.4191C38.7096 20.6579 38.5537 20.8891 38.315 20.9356ZM37.2382 15.4039C36.9995 15.4504 36.7682 15.2945 36.7218 15.0557L36.5147 13.9919C36.4682 13.7531 36.6241 13.5219 36.8628 13.4754C37.1016 13.4289 37.3328 13.5848 37.3793 13.8236L37.5864 14.8875C37.6329 15.1262 37.477 15.3574 37.2382 15.4039ZM36.6999 12.6381C36.4611 12.6845 36.2299 12.5287 36.1834 12.2899L36.082 11.7691C36.0634 11.6736 36.0171 11.5875 35.9481 11.52C35.7742 11.35 35.7714 11.0712 35.9414 10.8973C36.1114 10.7235 36.3902 10.7206 36.5641 10.8906C36.7613 11.0836 36.8935 11.3291 36.9463 11.6006L37.0477 12.1214C37.0942 12.3602 36.9386 12.5916 36.6999 12.6381ZM34.6926 11.5541L33.629 11.7611C33.3902 11.8076 33.159 11.6517 33.1125 11.413C33.066 11.1742 33.2219 10.943 33.4607 10.8965L34.5243 10.6895C34.7631 10.643 34.9943 10.7989 35.0408 11.0376C35.0873 11.2764 34.9314 11.5076 34.6926 11.5541ZM31.927 12.0924L30.8634 12.2995C30.6246 12.3459 30.3934 12.1901 30.3469 11.9513C30.3004 11.7125 30.4563 11.4813 30.6951 11.4348L31.7587 11.2278C31.9975 11.1813 32.2287 11.3372 32.2752 11.576C32.3217 11.8147 32.1658 12.0459 31.927 12.0924ZM29.1612 12.6308L28.0973 12.8379C27.8585 12.8843 27.6273 12.7285 27.5808 12.4897C27.5343 12.251 27.6902 12.0197 27.929 11.9733L28.9929 11.7662C29.2316 11.7197 29.4629 11.8756 29.5093 12.1143C29.5558 12.3531 29.3999 12.5843 29.1612 12.6308ZM26.3953 13.1692L25.3317 13.3762C25.0929 13.4227 24.8617 13.2668 24.8152 13.028C24.7687 12.7893 24.9246 12.5581 25.1634 12.5116L26.227 12.3045C26.4658 12.2581 26.697 12.4139 26.7435 12.6527C26.79 12.8915 26.6341 13.1227 26.3953 13.1692ZM23.6295 13.7075L22.5656 13.9146C22.3268 13.9611 22.0956 13.8052 22.0491 13.5665C22.0027 13.3277 22.1585 13.0965 22.3973 13.05L23.4612 12.8429C23.6999 12.7964 23.9312 12.9523 23.9776 13.1911C24.0241 13.4298 23.8682 13.6611 23.6295 13.7075ZM20.8636 14.2459L19.8 14.4529C19.5612 14.4994 19.33 14.3436 19.2835 14.1048C19.237 13.866 19.3929 13.6348 19.6317 13.5883L20.6953 13.3813C20.9341 13.3348 21.1653 13.4907 21.2118 13.7295C21.2583 13.9682 21.1024 14.1994 20.8636 14.2459ZM18.0978 14.7843L17.0339 14.9914C16.7951 15.0378 16.5639 14.882 16.5174 14.6432C16.471 14.4044 16.6268 14.1732 16.8656 14.1268L17.9295 13.9197C18.1683 13.8732 18.3995 14.0291 18.4459 14.2678C18.4924 14.5066 18.3366 14.7378 18.0978 14.7843ZM15.3319 15.3227L14.2683 15.5297C14.0295 15.5762 13.7983 15.4203 13.7518 15.1815C13.7054 14.9428 13.8612 14.7116 14.1 14.6651L15.1636 14.458C15.4024 14.4116 15.6336 14.5674 15.6801 14.8062C15.7266 15.045 15.5707 15.2762 15.3319 15.3227ZM12.5663 15.861L11.5024 16.0681C11.2637 16.1145 11.0325 15.9587 10.986 15.7199C10.9395 15.4811 11.0954 15.2499 11.3341 15.2035L12.398 14.9964C12.6368 14.9499 12.868 15.1058 12.9145 15.3445C12.961 15.5833 12.8051 15.8145 12.5663 15.861ZM9.80049 16.3993L8.73683 16.6064C8.49807 16.6529 8.26685 16.497 8.22038 16.2582C8.1739 16.0195 8.32978 15.7883 8.56854 15.7418L9.63219 15.5347C9.87095 15.4883 10.1022 15.6441 10.1486 15.8829C10.1951 16.1217 10.0393 16.3529 9.80049 16.3993Z" fill="#975E37"/>
<path d="M11.1495 38.0783L9.92604 38.3165C9.68728 38.3629 9.45606 38.2071 9.40959 37.9683C9.36311 37.7296 9.51898 37.4983 9.75774 37.4519L10.9812 37.2137C11.22 37.1672 11.4512 37.3231 11.4977 37.5619C11.5441 37.8006 11.3883 38.0319 11.1495 38.0783Z" fill="#975E37"/>
<path d="M39.4574 25.1376C37.2944 25.5585 35.1972 24.1449 34.7759 21.9818C34.3549 19.8187 35.7683 17.7206 37.9316 17.2994L41.2224 16.6588C42.1822 16.472 43.1129 17.0994 43.2997 18.0592L44.1485 22.4198C44.3353 23.3794 43.7081 24.3102 42.7481 24.4971L39.4574 25.1376Z" fill="#C47743" stroke="black" stroke-width="1.33431"/>
<path d="M38.9617 22.3427C39.5875 22.2208 39.996 21.6148 39.8742 20.989C39.7524 20.3632 39.1464 19.9546 38.5206 20.0764C37.8948 20.1982 37.4862 20.8043 37.608 21.4301C37.7298 22.0559 38.3359 22.4645 38.9617 22.3427Z" fill="#FFBF31"/>
</svg>
