<svg width="34" height="36" viewBox="0 0 34 36" fill="none" xmlns="http://www.w3.org/2000/svg">
<g filter="url(#filter0_d_31_7003)">
<rect x="0.5" y="0.5" width="33" height="33" rx="16.5" stroke="black" shape-rendering="crispEdges"/>
<path d="M33 17C33 8.16344 25.8366 1 17 1C8.16345 1 1 8.16344 1 17C1 25.8366 8.16345 33 17 33C25.8366 33 33 25.8366 33 17Z" fill="#FF0209"/>
<path d="M23.7918 24.0866C23.3151 24.1383 22.8272 24.1473 22.3595 24.1461C18.7111 24.1428 15.0627 24.1394 11.4154 24.1371C10.2675 24.1371 9.0173 24.1 8.13023 23.3704C7.13072 22.5463 6.92273 21.1173 6.84178 19.8243C6.72935 18.0524 6.72035 16.2749 6.81254 14.5018C6.86314 13.5282 6.95195 12.5309 7.37132 11.6495C7.67263 11.0165 8.1752 10.4476 8.8183 10.1485C9.56597 9.80112 10.3485 9.86295 11.1535 9.86183C13.0806 9.85958 15.0076 9.85846 16.9347 9.85621C18.9382 9.85396 20.9428 9.85283 22.9463 9.85059C23.893 9.85059 24.9094 9.8697 25.6818 10.4172C26.679 11.1233 26.95 12.4668 27.0748 13.6822C27.3053 15.9207 27.3087 18.1828 27.0838 20.4213C26.9905 21.3444 26.8353 22.3203 26.2271 23.0207C25.6244 23.7155 24.7306 23.9831 23.7929 24.0854L23.7918 24.0866Z" fill="white"/>
<path d="M20.2628 16.9999L14.8257 13.8608V20.139L20.2628 16.9999Z" fill="#FF0209"/>
</g>
<defs>
<filter id="filter0_d_31_7003" x="0" y="0" width="34" height="36" filterUnits="userSpaceOnUse" color-interpolation-filters="sRGB">
<feFlood flood-opacity="0" result="BackgroundImageFix"/>
<feColorMatrix in="SourceAlpha" type="matrix" values="0 0 0 0 0 0 0 0 0 0 0 0 0 0 0 0 0 0 127 0" result="hardAlpha"/>
<feOffset dy="2"/>
<feComposite in2="hardAlpha" operator="out"/>
<feColorMatrix type="matrix" values="0 0 0 0 0 0 0 0 0 0 0 0 0 0 0 0 0 0 0.5 0"/>
<feBlend mode="normal" in2="BackgroundImageFix" result="effect1_dropShadow_31_7003"/>
<feBlend mode="normal" in="SourceGraphic" in2="effect1_dropShadow_31_7003" result="shape"/>
</filter>
</defs>
</svg>
